<?xml version="1.0" standalone="no"?>
<!DOCTYPE svg PUBLIC "-//W3C//DTD SVG 20010904//EN"
 "http://www.w3.org/TR/2001/REC-SVG-20010904/DTD/svg10.dtd">
<svg version="1.0" xmlns="http://www.w3.org/2000/svg"
 width="1644.331240pt" height="1256.147870pt" viewBox="0 0 1644.331240 1256.147870"
 preserveAspectRatio="xMidYMid meet">
<metadata>
Created by potrace 1.12, written by Peter Selinger 2001-2015
</metadata>
<g transform="translate(-97.932028,1339.914967) scale(0.100000,-0.100000)"
fill="#000000" stroke="none">
<path d="M4974 13387 c-21 -25 -27 -56 -30 -177 -3 -112 -2 -123 11 -106 15
19 15 19 15 -2 0 -30 -3 -37 -16 -36 -6 1 -11 -13 -11 -30 0 -46 -11 -130 -23
-179 -22 -82 -29 -112 -29 -127 -1 -8 -6 -44 -12 -80 -5 -36 -12 -83 -15 -104
-2 -22 -9 -45 -15 -52 -6 -7 -8 -17 -6 -21 3 -5 -1 -51 -9 -103 -7 -52 -14
-116 -14 -142 0 -26 -5 -50 -11 -53 -6 -4 -9 -22 -7 -40 1 -19 -1 -37 -4 -40
-4 -4 -4 -13 -2 -20 3 -7 0 -39 -6 -72 -6 -32 -13 -107 -16 -168 -5 -136 -5
-135 -16 -135 -5 0 -8 -8 -6 -17 1 -10 0 -23 -4 -28 -4 -6 -9 -58 -13 -115 -7
-134 -16 -223 -23 -234 -3 -5 -7 -30 -9 -55 -2 -25 -5 -56 -8 -69 -4 -15 0
-24 10 -28 13 -5 14 -8 1 -18 -7 -6 -16 -29 -19 -51 -3 -22 -10 -67 -16 -100
-5 -33 -12 -101 -16 -151 -3 -51 -10 -114 -16 -140 -5 -27 -10 -59 -10 -72 1
-13 -3 -31 -8 -40 -5 -9 -11 -56 -15 -104 -4 -49 -11 -100 -17 -115 -6 -16
-13 -46 -15 -68 -2 -22 -10 -50 -16 -63 -10 -19 -9 -25 2 -33 12 -7 11 -10 -7
-15 -22 -6 -24 -24 -7 -82 4 -13 3 -22 -2 -21 -22 4 -34 -2 -34 -16 0 -8 9
-15 20 -15 13 0 20 -7 20 -19 0 -11 -9 -23 -20 -26 -23 -7 -27 -25 -5 -25 8 0
15 -4 15 -10 0 -5 -11 -10 -25 -10 -16 0 -25 -6 -25 -15 0 -8 -5 -15 -12 -15
-6 0 -4 -7 5 -18 10 -10 17 -27 17 -38 0 -14 2 -16 9 -5 6 9 11 10 15 2 8 -13
-16 -53 -29 -47 -6 2 -15 -2 -21 -9 -9 -9 -7 -15 7 -23 22 -14 26 -37 4 -29
-27 11 -26 -13 2 -38 l28 -25 -40 5 c-42 6 -65 -3 -68 -26 -2 -8 -6 -19 -10
-25 -12 -20 -47 -138 -47 -161 0 -12 -9 -37 -20 -56 -11 -19 -18 -42 -14 -51
4 -10 -1 -25 -11 -37 -18 -19 -18 -20 1 -33 17 -13 18 -15 2 -21 -9 -4 -22 -4
-27 0 -7 3 -8 0 -5 -9 4 -9 1 -16 -6 -16 -8 0 -10 -9 -6 -25 4 -15 2 -25 -4
-25 -6 0 -10 -8 -8 -17 2 -13 -3 -17 -17 -15 -13 2 -16 0 -8 -5 10 -7 9 -15
-3 -37 -8 -16 -12 -37 -9 -48 4 -10 2 -18 -4 -18 -6 0 -11 -7 -11 -15 0 -8 -7
-15 -15 -15 -8 0 -15 -9 -15 -20 0 -11 -4 -20 -9 -20 -9 0 -24 -38 -22 -54 1
-4 -5 -19 -13 -32 -9 -12 -13 -29 -10 -37 3 -9 -12 -33 -35 -58 -22 -24 -37
-47 -34 -52 3 -5 -7 -21 -22 -37 -26 -27 -26 -30 -11 -51 22 -33 20 -42 -9
-36 -20 3 -25 1 -23 -12 1 -9 -2 -22 -7 -30 -5 -10 -4 -16 3 -19 9 -3 9 -9 1
-24 -8 -15 -14 -17 -22 -9 -21 21 -29 11 -22 -28 5 -33 4 -39 -14 -44 -12 -3
-21 -12 -21 -21 0 -9 -5 -16 -11 -16 -6 0 -8 -8 -5 -18 7 -21 -27 -62 -50 -62
-10 0 -14 -6 -10 -15 3 -9 -1 -18 -9 -21 -9 -4 -15 -19 -15 -39 0 -24 -5 -35
-18 -39 -10 -3 -18 -16 -19 -27 -1 -12 -11 -28 -23 -36 -11 -8 -18 -18 -15
-23 3 -5 0 -12 -7 -17 -7 -4 -13 -16 -13 -25 0 -10 -4 -17 -9 -15 -4 1 -17
-15 -27 -35 -11 -21 -24 -38 -30 -38 -6 0 -9 -7 -6 -15 4 -9 -5 -22 -24 -35
-16 -12 -27 -25 -24 -30 3 -5 1 -11 -5 -15 -6 -3 -16 -21 -24 -39 -7 -17 -20
-38 -27 -46 -8 -8 -23 -28 -33 -45 -11 -16 -23 -34 -28 -40 -5 -5 -17 -21 -28
-34 -11 -13 -20 -30 -20 -37 0 -7 -9 -16 -20 -19 -11 -4 -18 -10 -15 -15 3 -5
1 -11 -5 -15 -5 -3 -10 -14 -10 -23 0 -10 -20 -37 -44 -62 -26 -26 -41 -51
-39 -61 3 -10 -3 -18 -16 -22 -13 -3 -21 -13 -21 -26 0 -12 -6 -21 -12 -21 -7
0 -23 -18 -36 -40 -24 -42 -25 -42 -147 -55 -128 -14 -352 -34 -440 -39 -77
-5 -283 -30 -373 -46 -117 -21 -153 -30 -207 -55 -31 -14 -69 -25 -85 -25 -17
0 -30 -4 -30 -10 0 -5 -8 -10 -18 -10 -46 0 -272 -91 -272 -110 0 -5 -13 -10
-30 -10 -23 0 -28 -3 -23 -16 5 -14 2 -16 -18 -11 -28 7 -136 -44 -131 -62 1
-6 -4 -11 -11 -11 -16 0 -88 -51 -137 -97 -19 -18 -38 -33 -42 -33 -5 0 -8 -7
-8 -15 0 -9 -16 -31 -35 -49 -19 -19 -35 -44 -35 -55 0 -12 -6 -21 -15 -21
-15 0 -37 -33 -40 -60 -2 -19 -22 -70 -35 -90 -24 -36 -32 -65 -21 -82 13 -21
14 -28 4 -27 -22 4 -33 -3 -33 -20 0 -11 6 -22 13 -24 9 -4 9 -7 0 -14 -7 -5
-15 -24 -17 -43 -3 -19 -8 -46 -10 -59 -3 -14 -8 -65 -10 -114 -3 -49 -8 -92
-11 -95 -13 -14 -3 -24 20 -18 19 5 23 3 19 -9 -4 -8 -12 -15 -20 -15 -16 0
-19 -26 -4 -35 6 -3 10 2 10 11 0 10 3 14 7 10 4 -3 7 -47 8 -96 1 -55 6 -95
13 -102 7 -7 12 -18 12 -26 0 -7 8 -32 18 -55 10 -23 27 -62 37 -87 11 -25 25
-49 32 -53 7 -4 13 -17 13 -27 0 -11 7 -20 15 -20 8 0 15 -9 15 -20 0 -11 9
-25 21 -32 11 -7 29 -29 39 -49 16 -31 100 -131 138 -163 7 -6 34 -33 60 -59
49 -51 95 -81 106 -70 3 4 6 2 6 -4 0 -12 100 -79 113 -75 4 1 10 -5 13 -13 4
-8 14 -15 24 -15 11 0 22 -4 25 -10 3 -6 15 -10 27 -10 12 0 22 -8 25 -21 3
-11 11 -18 18 -16 6 3 33 -6 59 -19 26 -13 52 -22 57 -19 5 4 19 -5 31 -18 13
-13 39 -28 58 -32 19 -4 44 -13 55 -20 11 -7 36 -15 55 -18 19 -3 76 -19 125
-35 130 -43 215 -64 255 -64 19 1 38 -4 42 -11 4 -7 22 -13 40 -14 43 -2 121
-17 135 -26 7 -4 33 -10 60 -12 109 -11 150 -16 183 -24 61 -16 219 -28 437
-35 73 -2 170 -9 216 -16 54 -7 135 -9 223 -5 76 3 189 8 249 10 61 2 139 7
175 11 36 3 103 8 150 10 79 3 155 10 155 15 0 1 34 2 76 4 41 1 81 5 89 10 7
5 25 9 39 10 131 10 288 34 315 47 13 7 21 6 26 -3 8 -13 34 -9 165 22 22 6
69 13 105 17 40 4 65 12 66 20 3 25 4 26 17 9 8 -12 22 -16 47 -13 115 13 188
25 213 35 15 6 31 10 35 9 4 -1 14 2 22 5 8 3 44 11 80 16 36 6 76 13 90 16
14 3 36 6 49 5 14 0 28 5 32 11 8 14 92 32 138 30 18 -1 38 2 45 7 6 5 34 12
61 16 75 10 193 36 256 57 30 11 66 19 78 19 17 0 22 4 17 16 -5 12 0 15 22
13 15 -1 40 3 55 10 16 6 33 11 38 11 5 0 17 4 27 9 32 16 93 33 99 27 4 -3
16 0 28 8 12 8 43 17 68 21 26 4 44 11 41 16 -3 5 7 9 21 9 41 0 239 69 255
89 3 3 39 14 80 25 41 10 102 31 135 46 33 15 82 36 108 45 27 10 51 24 54 32
3 7 20 13 38 13 18 0 38 7 45 15 7 8 16 15 21 15 5 0 34 12 66 26 53 24 56 27
38 40 -14 11 -15 14 -4 14 8 0 20 -5 25 -10 7 -7 18 -7 35 2 39 21 83 52 91
63 4 5 8 7 8 2 0 -4 19 2 42 14 31 16 38 23 27 30 -11 7 -11 9 3 9 17 0 110
58 116 73 2 4 12 7 23 7 10 0 19 4 19 9 0 5 29 28 65 50 36 23 88 63 116 89
28 26 67 62 86 80 56 51 63 45 65 -55 2 -113 1 -151 -8 -308 -6 -114 -8 -240
-4 -255 1 -3 1 -32 -1 -65 -1 -33 -3 -80 -4 -105 0 -25 -4 -70 -8 -100 -8 -53
-17 -242 -20 -425 -1 -49 -6 -96 -10 -103 -5 -6 -6 -16 -3 -20 8 -13 -21 -221
-33 -235 -6 -7 -10 -27 -10 -43 0 -53 -19 -199 -30 -227 -14 -36 -14 -37 3
-31 8 3 17 1 20 -4 3 -6 -1 -12 -9 -16 -22 -8 -43 -68 -38 -113 2 -28 -1 -44
-12 -53 -8 -7 -15 -27 -15 -44 0 -18 -7 -59 -16 -91 -9 -33 -20 -75 -24 -94
-5 -18 -13 -38 -18 -43 -15 -15 -186 -40 -262 -39 -41 1 -76 -4 -94 -14 -16
-8 -37 -13 -48 -10 -11 4 -20 1 -24 -9 -5 -12 -10 -13 -30 -4 -17 8 -27 8 -37
-1 -8 -6 -54 -16 -103 -22 -49 -6 -102 -17 -117 -26 -18 -9 -42 -13 -63 -10
-28 5 -37 1 -58 -24 -14 -16 -30 -29 -37 -29 -8 0 -8 4 1 15 11 13 7 15 -23
15 -24 0 -39 -6 -46 -17 -7 -13 -12 -14 -23 -6 -7 6 -21 7 -33 2 -11 -4 -34
-8 -50 -8 -17 -1 -40 -8 -52 -16 -12 -9 -26 -14 -30 -13 -15 3 -98 -23 -108
-35 -5 -7 -29 -13 -53 -14 -23 0 -50 -5 -60 -9 -9 -4 -24 -9 -32 -10 -8 -1
-26 -6 -40 -9 -14 -4 -43 -10 -65 -15 -22 -5 -53 -13 -68 -19 -16 -6 -38 -11
-51 -11 -12 0 -27 -5 -33 -11 -7 -7 -27 -13 -45 -14 -18 -2 -34 -8 -36 -14 -2
-6 -15 -11 -30 -11 -24 0 -71 -12 -117 -31 -11 -4 -36 -11 -55 -15 -19 -3 -54
-15 -76 -26 -23 -10 -52 -20 -65 -22 -13 -1 -35 -8 -47 -15 -13 -7 -35 -10
-48 -7 -16 4 -30 0 -44 -14 -11 -11 -26 -20 -34 -20 -7 0 -26 -6 -41 -14 -15
-8 -34 -12 -41 -9 -8 3 -14 0 -14 -6 0 -6 -6 -11 -14 -11 -8 0 -16 -7 -20 -15
-4 -12 -9 -13 -24 -4 -15 10 -26 6 -60 -19 -28 -19 -50 -28 -63 -25 -12 4 -32
-3 -50 -16 -16 -12 -35 -21 -42 -20 -20 4 -70 -13 -115 -37 -23 -13 -49 -24
-56 -24 -8 0 -19 -6 -25 -14 -7 -8 -26 -18 -42 -21 -17 -4 -26 -11 -23 -17 4
-7 2 -8 -5 -4 -6 4 -24 -2 -40 -13 -16 -12 -36 -21 -44 -21 -9 0 -19 -4 -22
-10 -3 -5 -15 -10 -25 -10 -10 0 -25 -7 -34 -15 -8 -8 -21 -15 -28 -15 -7 0
-26 -14 -42 -30 -16 -17 -39 -30 -50 -30 -12 0 -32 -7 -46 -15 -14 -7 -40 -21
-57 -29 -18 -8 -33 -22 -33 -31 0 -9 -4 -14 -9 -11 -12 8 -92 -25 -113 -46
-10 -10 -24 -18 -31 -18 -7 0 -34 -18 -61 -40 -26 -22 -53 -40 -58 -40 -6 0
-33 -18 -60 -40 -28 -22 -55 -40 -59 -40 -5 0 -9 -7 -9 -15 0 -13 -12 -19 -32
-16 -4 0 -5 -6 -2 -14 4 -10 0 -15 -13 -15 -25 0 -105 -68 -96 -83 4 -6 0 -8
-9 -5 -17 7 -88 -46 -88 -64 0 -6 9 -3 19 6 11 10 25 15 32 11 8 -6 7 -10 -5
-17 -8 -5 -19 -8 -22 -8 -4 1 -11 -4 -15 -12 -7 -10 -9 -10 -9 0 0 6 -6 12
-12 12 -18 0 -85 -71 -90 -95 -2 -11 -9 -19 -16 -18 -6 2 -39 -30 -73 -70 -34
-39 -71 -78 -81 -85 -10 -8 -18 -25 -18 -42 0 -17 -8 -34 -19 -42 -10 -7 -29
-32 -41 -56 -12 -23 -26 -44 -30 -47 -12 -7 -39 -140 -41 -200 -1 -42 14 -88
45 -133 60 -90 71 -101 93 -96 22 6 53 -27 53 -57 0 -12 7 -15 25 -11 20 3 27
-1 35 -23 8 -22 13 -25 24 -15 12 9 17 7 26 -10 8 -15 18 -20 31 -17 10 3 19
2 19 -3 0 -4 12 -10 28 -13 28 -5 74 -21 128 -43 57 -25 303 -67 399 -69 33
-1 112 -8 175 -14 63 -7 120 -13 125 -13 28 -1 184 12 196 17 8 2 46 7 84 10
126 9 380 50 400 65 13 10 72 20 142 25 32 2 72 10 88 19 17 9 42 16 58 16 15
0 35 4 45 9 53 27 72 33 88 27 10 -4 25 1 36 11 11 10 30 19 42 20 45 5 86 16
86 23 0 5 14 12 32 15 36 8 105 42 114 56 3 5 9 7 14 4 5 -3 28 3 52 15 23 11
46 20 52 20 5 0 18 7 27 16 10 9 27 18 36 19 28 2 67 21 82 38 7 9 26 19 42
22 16 4 29 11 29 16 0 5 6 9 13 9 13 0 79 31 100 48 7 5 34 17 60 27 26 10 52
27 58 37 5 10 14 16 18 14 4 -3 17 4 29 14 12 11 26 20 31 20 6 0 21 11 35 25
14 14 29 25 35 25 5 0 11 4 13 8 2 5 26 23 53 42 51 35 98 74 146 123 15 15
32 27 37 27 15 0 179 167 207 210 12 19 30 41 39 49 9 7 16 17 16 21 0 4 16
25 35 46 19 21 35 44 35 51 0 7 13 27 29 45 15 18 35 47 44 63 8 17 25 40 37
53 12 12 22 31 23 42 1 11 6 20 12 20 6 0 22 22 36 50 13 27 27 50 31 50 4 0
12 17 17 38 6 20 21 53 33 72 31 50 67 123 68 138 0 6 11 35 24 63 14 28 22
57 20 64 -3 8 1 27 9 42 8 15 23 46 33 68 10 22 20 43 22 48 2 4 -4 7 -13 7
-12 0 -15 5 -11 16 3 9 6 20 6 25 0 5 4 9 10 9 5 0 7 -7 4 -15 -4 -8 -2 -15 2
-15 9 0 69 184 93 285 18 74 31 83 136 89 50 3 137 10 195 16 58 6 150 11 205
11 306 -1 562 -7 573 -14 8 -5 12 -3 12 7 0 9 5 16 10 16 6 0 10 -9 10 -20 0
-17 5 -19 25 -14 14 3 31 2 38 -4 6 -5 44 -12 82 -15 73 -6 158 -23 187 -38
10 -5 24 -9 32 -9 8 0 17 -7 20 -16 4 -10 13 -13 26 -9 13 4 22 1 26 -9 4 -10
18 -16 40 -16 19 0 52 -11 74 -25 22 -14 48 -25 59 -25 11 0 43 -16 72 -35 30
-19 57 -35 62 -35 32 0 176 -118 191 -156 7 -18 8 -18 21 -1 17 23 23 12 19
-36 -2 -27 2 -43 16 -57 11 -11 20 -25 20 -31 0 -20 103 -109 120 -104 10 3
23 -1 30 -10 18 -21 43 -19 72 8 13 12 35 28 49 35 21 11 48 47 59 77 1 6 10
15 18 21 18 13 9 44 -13 44 -8 0 -15 5 -15 11 0 5 -4 7 -10 4 -5 -3 -10 -15
-10 -26 0 -17 -3 -18 -20 -9 -25 14 -25 6 0 -30 28 -39 5 -53 -26 -16 -20 23
-28 26 -63 20 -39 -6 -39 -6 -59 40 -12 25 -26 46 -33 46 -7 0 -9 3 -6 7 8 7
-24 63 -71 120 -33 41 -123 113 -140 113 -5 0 -17 9 -27 20 -21 23 -46 35
-210 101 -60 24 -111 47 -113 51 -2 5 -15 8 -28 8 -14 0 -23 4 -20 9 3 4 -6 6
-19 3 -18 -3 -25 0 -25 12 0 14 -8 16 -50 10 -34 -5 -50 -3 -50 5 0 6 -7 11
-15 11 -8 0 -14 5 -13 12 2 7 -8 13 -22 14 -28 3 -65 8 -160 24 -36 6 -105 12
-154 15 -49 2 -99 6 -112 9 -22 6 -29 -2 -25 -26 0 -5 -8 -8 -20 -8 -15 0 -19
5 -14 19 5 18 -1 19 -122 21 -70 1 -135 1 -143 1 -8 -1 -24 -1 -35 -1 -28 2
-32 1 -113 -2 -41 -2 -74 1 -76 7 -3 6 -10 3 -18 -6 -10 -11 -21 -13 -48 -7
-19 4 -73 3 -120 -2 -47 -5 -103 -9 -125 -7 -22 1 -50 -2 -61 -6 -15 -5 -23
-3 -27 7 -6 14 25 204 38 237 3 10 1 20 -5 24 -8 5 -7 12 4 24 10 11 17 47 21
101 6 77 17 122 48 187 7 16 7 26 -3 38 -10 12 -10 15 3 15 18 0 30 98 15 117
-7 9 -7 22 2 42 6 16 13 70 15 121 2 50 9 97 15 105 15 18 19 55 27 235 9 207
10 228 17 300 4 36 9 94 12 130 7 68 16 628 12 715 -4 108 1 237 11 249 6 7 7
23 4 37 -6 21 -4 22 9 11 14 -11 20 -9 43 13 16 14 32 25 36 25 5 0 9 4 9 9 0
15 53 91 63 91 5 0 7 11 5 24 -3 17 0 23 11 22 10 -1 15 6 13 16 -2 12 2 16
12 12 11 -4 19 2 25 19 5 14 15 28 20 32 6 3 11 15 11 26 0 10 7 19 15 19 8 0
15 6 15 14 0 8 6 16 13 19 7 3 0 9 -15 16 -16 6 -28 17 -28 26 0 13 3 13 20 3
11 -7 20 -16 20 -20 0 -5 5 -8 11 -8 7 0 9 10 5 25 -5 18 -1 27 13 34 10 6 21
7 25 4 3 -3 6 1 6 10 0 35 19 15 51 -54 34 -73 49 -87 108 -100 36 -8 161 17
161 32 0 5 7 9 15 9 19 0 154 109 190 153 72 89 89 107 97 107 6 0 31 -21 57
-46 47 -48 123 -88 195 -104 171 -38 180 -39 276 -29 52 5 124 16 160 24 36 7
91 19 122 25 32 6 65 18 73 27 9 8 18 13 21 10 7 -6 99 20 134 38 14 7 53 21
88 31 35 9 65 21 68 26 3 4 16 8 29 8 13 0 27 5 30 10 3 6 14 10 24 10 10 0
25 7 32 16 7 9 24 20 37 25 15 6 22 15 18 24 -3 8 -1 15 3 15 5 0 11 -6 13
-12 7 -21 76 22 116 72 20 25 43 52 52 60 9 8 24 27 33 43 10 15 25 27 33 27
10 0 14 6 10 15 -4 11 3 19 19 25 14 5 25 14 25 20 0 5 4 10 8 10 4 0 13 -37
19 -81 6 -45 15 -84 20 -88 5 -3 19 -27 31 -52 24 -53 106 -129 139 -129 13 0
42 -8 65 -17 47 -19 203 -25 268 -10 19 4 42 9 50 10 14 2 137 58 170 77 8 5
34 18 56 30 25 12 48 34 58 53 8 18 16 27 16 20 0 -25 43 -6 77 34 20 24 41
43 47 43 28 0 166 177 166 213 0 9 5 17 10 17 6 0 10 8 10 18 0 25 25 93 49
133 11 19 22 44 24 54 8 41 19 75 26 75 3 0 17 18 31 40 14 22 30 40 37 40 12
0 17 12 14 32 0 4 13 17 30 29 17 12 35 31 40 43 33 74 40 79 114 79 39 -1 75
3 80 6 6 4 26 8 45 9 19 1 76 8 125 16 50 8 126 17 171 20 72 6 83 4 98 -13
13 -14 15 -24 8 -37 -5 -9 -6 -32 -2 -50 4 -18 6 -103 5 -188 -3 -137 -2 -155
13 -161 16 -6 16 -7 0 -16 -11 -6 -18 -29 -23 -69 -4 -33 -10 -60 -15 -60 -4
0 -10 -11 -12 -25 -3 -14 -1 -25 5 -25 6 0 4 -6 -5 -12 -9 -7 -19 -34 -22 -60
-4 -26 -14 -61 -23 -78 -16 -34 -37 -163 -35 -220 0 -21 8 -39 19 -47 10 -7
24 -18 32 -25 11 -9 16 -9 19 0 2 7 9 12 15 12 17 0 51 40 64 75 11 27 21 80
29 145 9 71 22 138 32 160 6 14 23 63 37 110 23 75 43 124 78 195 40 80 60
113 80 130 13 11 34 36 47 55 13 19 30 39 37 43 7 4 13 13 13 19 0 5 11 19 25
30 13 10 24 22 23 26 -1 4 9 20 22 36 84 97 86 99 118 98 18 0 32 2 32 6 0 4
61 7 135 6 115 0 137 -3 154 -18 22 -20 36 -82 46 -197 3 -42 15 -108 26 -145
22 -74 38 -308 24 -341 -7 -16 -10 -47 -14 -146 -1 -19 -5 -26 -13 -21 -8 5
-9 2 -4 -12 5 -10 9 -27 10 -37 1 -17 46 -47 72 -47 7 0 24 5 37 11 27 12 47
85 52 190 3 65 50 310 65 338 4 9 11 36 15 61 9 54 17 69 78 134 27 28 56 63
65 79 9 15 20 27 24 27 4 0 8 6 8 14 0 8 14 22 32 30 38 19 35 19 42 0 3 -9
-4 -24 -19 -38 -13 -12 -43 -58 -66 -102 -37 -68 -43 -89 -45 -149 -1 -38 -5
-98 -8 -132 -3 -36 -1 -65 4 -68 6 -3 10 -24 10 -45 0 -58 50 -159 96 -196 48
-38 85 -59 100 -56 7 1 14 -4 17 -13 12 -29 191 -88 267 -87 93 0 330 64 330
88 0 7 8 10 19 7 10 -3 22 0 25 6 4 6 0 11 -8 11 -30 0 -16 15 15 17 36 3 60
17 161 95 68 53 139 128 121 128 -5 0 -26 -14 -46 -31 -27 -22 -42 -28 -49
-21 -13 13 -2 32 18 32 8 0 14 7 14 15 0 8 -9 15 -19 15 -19 0 -19 2 -5 35 9
23 11 35 3 35 -6 0 -13 -9 -16 -20 -3 -11 -9 -20 -14 -20 -5 0 -17 -8 -28 -17
-10 -10 -32 -29 -50 -43 -17 -14 -31 -31 -31 -38 0 -7 -4 -10 -10 -7 -15 9
-61 -18 -98 -58 -72 -78 -319 -110 -442 -58 -30 13 -68 26 -85 29 -37 6 -111
67 -131 106 -10 21 -14 68 -15 165 -1 125 1 141 25 200 14 36 26 70 26 77 0 7
6 17 13 21 12 8 36 38 67 83 34 51 52 70 66 70 8 0 14 8 14 18 1 23 23 51 56
68 31 16 80 17 144 3 25 -5 52 -10 60 -11 8 0 20 -5 26 -10 6 -4 30 -18 54
-31 25 -13 50 -36 60 -57 32 -60 51 -110 55 -141 9 -71 69 -126 150 -136 29
-4 172 19 227 37 16 4 30 4 33 0 8 -13 -6 -61 -15 -55 -5 3 -21 -13 -37 -36
-15 -22 -38 -52 -51 -66 -23 -27 -29 -53 -11 -53 5 0 8 4 5 8 -3 5 7 22 23 38
15 16 36 44 46 62 20 33 43 45 30 15 -4 -10 -10 -31 -12 -48 -6 -43 -23 -73
-44 -78 -11 -3 -19 -10 -19 -17 0 -7 8 -9 20 -5 19 6 20 3 16 -88 -4 -80 -1
-100 15 -126 10 -17 14 -31 8 -31 -6 0 -8 -9 -3 -22 4 -13 8 -40 9 -61 1 -20
10 -45 19 -55 9 -10 13 -21 10 -24 -8 -9 63 -118 76 -118 6 0 29 -15 52 -32
l40 -33 157 1 c158 1 287 21 386 58 22 8 49 15 61 16 11 0 29 7 40 15 10 8 27
15 36 15 9 0 23 6 30 13 7 7 36 24 63 37 28 13 66 37 85 52 69 58 240 220 240
229 0 4 23 31 50 58 32 32 50 59 50 74 0 12 5 28 11 34 17 17 15 104 -3 141
-9 17 -19 45 -23 61 -3 16 -16 39 -28 51 -23 22 -136 108 -165 125 -10 5 -40
24 -68 41 -28 18 -66 37 -85 42 -19 6 -70 24 -114 40 -100 37 -210 72 -228 72
-8 0 -27 6 -43 14 -16 8 -47 17 -69 20 -22 3 -58 8 -80 12 -22 3 -52 10 -67
16 -29 11 -30 26 -6 90 6 15 7 39 4 52 -3 14 -1 28 5 32 6 3 9 15 6 25 -3 10
0 20 7 22 8 3 8 8 1 18 -6 8 -12 39 -14 69 -1 30 -7 60 -13 67 -5 7 -7 17 -3
22 8 14 -13 53 -25 46 -5 -3 -17 3 -27 15 -22 26 -61 26 -89 -1 -19 -17 -26
-19 -44 -9 -12 7 -31 9 -42 7 -11 -3 -31 -2 -44 3 -16 6 -24 6 -24 -1 0 -6 -6
-6 -19 1 -25 13 -44 13 -36 0 4 -6 -7 -10 -24 -10 -17 0 -31 -4 -31 -10 0 -5
-7 -10 -15 -10 -9 0 -18 -7 -21 -15 -4 -8 -14 -15 -23 -15 -10 0 -26 -6 -36
-14 -17 -13 -10 -14 65 -10 72 3 91 1 120 -16 19 -11 54 -29 76 -39 50 -23 73
-63 63 -106 -4 -17 -10 -51 -14 -78 -3 -27 -16 -58 -28 -72 -21 -22 -25 -23
-72 -13 -55 11 -81 12 -170 9 -61 -3 -240 15 -257 25 -5 3 -15 1 -22 -5 -9 -7
-24 -7 -52 1 -24 6 -76 8 -134 4 -105 -7 -134 1 -112 31 6 10 15 25 19 33 11
25 32 42 43 35 12 -7 40 18 40 35 0 7 8 10 20 7 11 -3 20 -1 20 4 0 5 3 8 8 7
11 -2 62 24 62 33 0 4 12 12 28 18 15 6 34 15 42 20 27 17 48 23 137 40 65 12
99 29 85 43 -7 7 -42 5 -109 -7 -54 -9 -115 -19 -136 -22 -20 -3 -40 -9 -43
-14 -3 -5 -15 -9 -27 -9 -28 1 34 31 116 55 31 10 57 22 57 26 0 5 9 9 19 9
11 0 22 4 25 9 3 4 23 11 44 15 21 3 59 15 84 26 26 11 53 17 62 14 9 -4 16
-1 16 6 0 15 -94 7 -115 -10 -8 -7 -22 -10 -30 -6 -8 3 -34 1 -58 -4 -133 -29
-147 -33 -147 -46 0 -8 -9 -14 -19 -14 -11 0 -23 -4 -26 -10 -3 -5 -36 -24
-73 -41 -37 -18 -69 -35 -72 -38 -3 -3 -22 -15 -42 -26 -21 -11 -38 -23 -38
-27 0 -5 -7 -8 -15 -8 -19 0 -53 -28 -138 -112 -39 -40 -76 -68 -88 -68 -11 0
-29 -5 -39 -10 -11 -6 -41 -12 -67 -15 -113 -11 -372 -29 -418 -29 -27 0 -53
-4 -56 -9 -4 -6 -27 -5 -57 3 -38 9 -57 20 -77 46 -17 23 -34 34 -51 34 -14 0
-39 7 -55 16 -28 14 -34 14 -70 0 -22 -9 -52 -16 -67 -16 -15 0 -40 -7 -56
-15 -15 -8 -37 -15 -47 -15 -10 0 -28 -8 -40 -17 -11 -10 -30 -26 -41 -35 -12
-10 -33 -19 -47 -20 -14 -1 -39 -3 -56 -5 -16 -1 -64 -5 -105 -8 -41 -2 -103
-7 -138 -10 l-62 -6 -23 53 c-13 29 -32 72 -42 96 -10 24 -32 53 -49 65 -17
12 -42 32 -56 44 -14 13 -30 23 -37 23 -7 0 -13 4 -13 9 0 13 -39 18 -78 10
-17 -4 -35 -3 -38 3 -3 5 -16 3 -29 -6 -13 -9 -31 -13 -40 -10 -22 9 -87 -27
-80 -44 3 -9 0 -12 -9 -9 -22 9 -66 -31 -66 -59 0 -17 -6 -24 -19 -24 -13 0
-25 -13 -37 -40 -11 -24 -24 -39 -32 -37 -8 1 -17 -4 -19 -10 -3 -7 0 -13 5
-13 6 0 8 -9 5 -20 -3 -11 -9 -17 -14 -15 -4 3 -6 12 -2 20 3 8 0 15 -6 15 -6
0 -11 -7 -11 -15 0 -8 -9 -23 -21 -34 -12 -11 -18 -24 -14 -30 3 -6 0 -11 -8
-11 -8 0 -17 -6 -20 -13 -5 -13 -134 -43 -167 -40 -8 1 -17 -3 -20 -8 -3 -5
-25 -11 -49 -14 -24 -3 -51 -9 -60 -14 -13 -7 -56 -17 -116 -27 -5 -1 -14 -3
-20 -4 -5 -1 -14 -2 -19 -1 -5 1 -13 -4 -17 -10 -6 -10 -11 -10 -22 -1 -14 12
-23 11 -64 -4 -10 -4 -28 -6 -40 -5 -13 1 -23 -1 -23 -6 0 -4 -26 -8 -58 -7
-31 0 -72 -6 -90 -13 -18 -6 -39 -10 -47 -7 -8 3 -29 -2 -47 -11 -22 -11 -45
-14 -70 -10 -23 4 -38 3 -38 -3 0 -6 -23 -8 -55 -6 -30 2 -55 1 -55 -3 0 -5
-47 -8 -105 -8 l-105 0 -6 34 c-4 19 -8 50 -8 70 -5 93 -7 100 -38 134 -45 47
-74 88 -82 114 -6 19 -95 103 -108 103 -2 0 -26 21 -52 46 -26 25 -53 43 -59
41 -7 -2 -20 0 -30 5 -53 27 -197 49 -197 31 0 -8 -10 -9 -78 -15 -16 -2 -36
-9 -44 -15 -8 -7 -17 -10 -21 -7 -3 3 -8 -4 -12 -15 -8 -25 -21 -27 -33 -6 -7
13 -14 12 -55 -10 -26 -13 -51 -24 -55 -23 -18 6 -103 -47 -141 -87 -23 -25
-51 -45 -61 -45 -10 0 -60 -41 -112 -92 -51 -51 -106 -101 -121 -111 -16 -10
-43 -41 -59 -68 -17 -27 -36 -49 -43 -49 -13 0 -40 -49 -36 -67 1 -7 -5 -13
-13 -13 -13 0 -36 -28 -42 -50 0 -3 -7 -19 -13 -37 -11 -28 -16 -31 -42 -26
-16 3 -35 0 -43 -6 -9 -8 -21 -8 -39 -2 -26 10 -247 11 -247 1 0 -3 -35 -5
-77 -4 -43 1 -78 5 -78 10 1 5 4 28 9 52 6 31 4 47 -5 59 -12 14 -11 15 9 9
18 -6 22 -3 24 16 2 42 3 47 11 54 4 4 7 23 7 41 0 19 5 43 10 53 6 11 15 66
20 122 5 57 15 135 23 175 9 49 11 75 4 82 -7 7 -7 18 1 33 9 16 11 68 7 178
-3 85 -7 221 -9 302 -2 81 -8 153 -12 160 -5 7 -10 33 -10 58 -2 57 -39 246
-65 326 -10 33 -19 70 -19 83 0 12 -7 38 -16 59 -10 20 -16 45 -15 54 1 10 -4
32 -12 50 -16 36 -48 121 -68 181 -7 20 -19 37 -27 37 -10 0 -13 7 -9 22 4 14
-3 42 -18 73 -24 50 -64 150 -111 275 -29 76 -66 154 -76 158 -5 2 -8 14 -8
26 0 22 -16 65 -45 116 -7 14 -26 49 -41 78 -19 34 -35 52 -47 52 -13 0 -17 5
-12 19 3 10 -1 24 -10 31 -8 7 -15 20 -15 30 0 9 -9 29 -20 43 -11 14 -20 32
-20 40 0 19 -26 41 -39 33 -6 -4 -8 -13 -4 -21 3 -8 0 -15 -5 -15 -18 0 -24
20 -12 35 22 27 -38 136 -149 272 -14 17 -53 66 -86 108 -33 42 -79 99 -102
126 -47 58 -139 139 -157 139 -6 0 -19 13 -29 29 -18 31 -80 66 -102 57 -8 -3
-17 -1 -20 5 -8 13 -70 6 -89 -10 -24 -20 -46 -70 -46 -104 0 -16 -5 -58 -12
-93 -8 -48 -9 -70 0 -88 7 -16 8 -28 2 -31 -6 -4 -10 -28 -10 -55 0 -27 -4
-51 -9 -54 -5 -3 -8 -41 -7 -83 1 -43 0 -122 -3 -176 -4 -55 -2 -101 2 -104 5
-3 6 -12 2 -20 -3 -9 -1 -41 4 -72 6 -31 13 -92 15 -136 3 -44 10 -114 16
-155 6 -41 11 -82 11 -90 1 -36 10 -59 26 -62 10 -2 17 -13 17 -30 1 -20 -1
-24 -11 -17 -7 6 -16 8 -22 5 -13 -9 -1 -49 21 -64 10 -7 17 -21 17 -30 -1
-15 -2 -15 -6 1 -2 9 -9 17 -14 17 -16 0 9 -222 28 -254 7 -11 7 -10 18 -136
12 -145 14 -164 19 -210 5 -51 20 -162 35 -264 6 -38 14 -72 18 -75 5 -3 8
-37 8 -76 1 -93 16 -237 26 -250 4 -6 12 -56 18 -112 6 -55 15 -113 21 -128 6
-15 10 -39 10 -53 -1 -57 10 -153 25 -238 36 -200 37 -215 25 -277 -8 -42 -8
-63 -1 -70 18 -18 13 -37 -9 -37 -11 0 -22 -6 -24 -12 -12 -46 -41 -135 -47
-143 -4 -5 -10 -26 -14 -45 -8 -40 -60 -93 -107 -109 -18 -6 -39 -17 -47 -25
-18 -15 -106 -33 -201 -41 -35 -3 -67 -11 -71 -17 -5 -7 -8 -7 -10 1 -6 18
-102 15 -171 -5 -9 -3 -19 0 -23 6 -9 15 -25 12 -25 -5 0 -20 -16 -19 -24 1
-6 17 -50 16 -88 -1 -12 -4 -18 -3 -18 5 0 22 -89 146 -112 157 -13 6 -54 38
-92 72 -38 33 -73 61 -78 61 -5 0 -26 11 -46 25 -34 23 -93 34 -92 18 1 -5 24
-19 53 -32 46 -22 112 -71 96 -71 -4 0 -37 14 -73 31 -59 27 -72 30 -113 23
-73 -14 -64 -30 19 -38 98 -8 109 -10 138 -26 14 -7 27 -13 30 -12 28 10 185
-87 168 -103 -7 -7 -111 45 -116 57 -2 4 -11 8 -20 8 -12 0 -8 -9 15 -32 37
-40 83 -108 83 -124 0 -15 -59 -23 -225 -29 -71 -3 -141 -8 -155 -10 -54 -11
-80 125 -33 177 21 24 85 58 110 59 14 0 13 3 -5 12 -18 8 -35 8 -68 -1 -24
-7 -56 -12 -70 -12 -30 0 -87 -37 -79 -51 4 -5 2 -9 -3 -9 -5 0 -19 -20 -32
-45 -17 -33 -21 -54 -17 -84 l5 -39 -47 -6 c-64 -7 -304 -19 -441 -20 -64 -1
-121 -5 -128 -10 -25 -15 -30 5 -12 47 10 23 21 53 23 67 2 14 8 34 12 44 5
11 9 45 9 75 1 32 6 60 13 66 7 6 17 33 23 60 5 28 17 82 26 120 9 39 18 86
21 105 3 19 12 45 21 57 9 15 12 34 8 56 -4 20 -1 40 7 52 17 26 40 122 32
134 -3 6 1 21 9 33 20 32 40 148 27 161 -13 13 -3 37 16 37 12 0 14 8 10 40
-3 22 -1 40 4 40 5 0 6 23 3 54 -6 48 -4 55 14 60 24 8 34 61 37 196 1 47 4
92 7 100 6 15 21 160 20 192 0 10 3 20 8 23 5 3 7 12 3 20 -3 9 0 22 7 30 10
12 10 21 1 41 -7 17 -8 31 -1 43 5 10 12 112 15 227 2 115 7 251 10 303 5 71
3 96 -7 103 -10 7 -10 10 4 18 20 13 22 77 2 108 -13 20 -13 23 1 28 13 5 15
21 12 88 -1 44 -6 86 -10 93 -4 7 -5 22 -2 35 4 15 -3 41 -19 71 -14 26 -23
47 -19 47 3 0 0 7 -7 15 -11 13 -15 13 -21 3 -6 -9 -9 -6 -9 10 0 23 -25 31
-33 10 -4 -10 -6 -10 -6 0 -1 19 -29 14 -41 -7 -5 -11 -10 -29 -10 -40 0 -12
-4 -21 -10 -21 -5 0 -10 -10 -10 -23 0 -13 -5 -28 -12 -35 -6 -6 -11 -27 -10
-47 1 -19 -3 -35 -9 -35 -6 0 -9 -6 -6 -13 3 -7 -1 -21 -9 -32 -8 -10 -14 -29
-14 -41 0 -13 -5 -26 -10 -29 -10 -6 -7 -102 4 -112 3 -4 1 -12 -5 -19 -6 -8
-8 -21 -5 -30 3 -9 -13 -53 -38 -102 -25 -48 -56 -113 -70 -145 -14 -32 -35
-66 -47 -76 -12 -10 -21 -29 -21 -44 0 -15 -4 -27 -8 -27 -12 0 -29 -57 -34
-110 -2 -25 -5 -45 -6 -45 -2 0 -7 -21 -21 -92 -7 -35 -16 -63 -21 -63 -4 0
-8 -15 -8 -32 0 -18 -7 -55 -15 -82 -8 -27 -15 -61 -15 -75 0 -15 -9 -44 -21
-65 -14 -26 -19 -53 -18 -83 2 -24 -2 -47 -7 -51 -6 -4 -11 -24 -11 -46 -1
-21 -5 -41 -11 -45 -15 -10 -42 -68 -42 -91 0 -12 5 -30 10 -40 8 -15 6 -21
-11 -30 -11 -6 -18 -18 -15 -25 3 -8 1 -29 -5 -47 -5 -18 -10 -56 -11 -85 -1
-35 -6 -54 -16 -58 -9 -3 -13 -14 -9 -30 2 -14 0 -28 -5 -31 -6 -4 -5 -10 3
-14 10 -7 10 -12 1 -23 -7 -7 -9 -17 -5 -20 3 -4 1 -12 -4 -19 -20 -25 -24
-66 -8 -82 19 -19 20 -32 0 -16 -21 17 -32 5 -27 -28 2 -16 -1 -33 -7 -36 -18
-12 -13 -32 12 -44 21 -10 21 -11 2 -11 -21 -1 -27 -16 -55 -141 -16 -73 -30
-92 -76 -109 -53 -18 -77 -40 -63 -57 8 -9 5 -15 -10 -24 -27 -14 -27 -30 0
-30 18 0 19 -2 9 -15 -10 -12 -10 -15 3 -15 9 0 18 4 21 9 3 5 21 11 40 13 31
3 33 2 26 -18 -5 -12 -6 -24 -3 -28 3 -3 -2 -22 -12 -42 -10 -21 -21 -83 -27
-147 -8 -84 -15 -114 -29 -128 -11 -11 -19 -15 -19 -9 0 9 -80 14 -183 11 -58
-1 -93 13 -59 23 12 4 22 15 22 25 0 10 9 26 21 37 11 10 29 37 39 59 10 22
46 71 80 108 35 37 60 70 58 73 -10 9 -138 -71 -138 -86 0 -6 -6 -10 -13 -10
-15 0 -59 -45 -76 -77 -13 -26 -47 -32 -37 -8 3 9 24 42 46 75 39 58 48 80 32
80 -8 0 -73 -96 -101 -148 -13 -25 -6 -46 14 -38 8 3 11 -2 8 -15 -6 -22 -19
-25 -26 -6 -6 19 -34 -9 -49 -49 -6 -19 -17 -34 -23 -35 -5 0 -32 -4 -60 -8
-27 -5 -57 -5 -65 -1 -8 4 -42 3 -75 -2 -54 -8 -224 -13 -230 -6 -3 3 -9 52
-24 186 -5 40 -15 79 -22 88 -7 8 -13 37 -13 65 -1 33 -6 53 -16 59 -10 6 -15
24 -14 54 0 25 -3 43 -8 40 -14 -9 -9 33 6 46 15 11 11 39 -7 51 -6 4 -4 21 3
44 11 33 10 39 -4 47 -16 9 -22 53 -8 62 10 6 6 93 -6 139 -8 28 -7 38 7 51
11 12 13 19 4 24 -16 10 -21 84 -5 90 10 3 10 7 1 19 -10 11 -10 16 0 22 9 6
9 19 1 55 -5 25 -8 57 -4 71 3 13 2 30 -2 37 -9 13 -14 43 -16 91 0 15 -5 27
-10 27 -5 0 -2 10 6 22 10 13 12 26 6 33 -5 6 -11 53 -14 105 -3 52 -8 118
-11 145 -3 28 -5 64 -4 80 1 17 1 64 1 105 -5 315 10 663 30 688 7 8 7 12 -1
12 -6 0 -11 7 -11 15 0 8 4 15 9 15 5 0 8 28 8 63 0 34 7 83 16 109 10 28 14
60 11 78 -4 17 -2 36 5 44 6 7 11 27 11 42 -1 16 4 53 10 83 6 29 9 55 6 58
-3 3 1 17 8 32 7 14 13 44 15 66 1 22 6 63 11 90 5 28 9 57 9 65 0 8 5 35 11
60 6 25 11 53 11 63 0 10 5 31 11 45 11 28 14 37 16 61 1 7 8 11 16 8 11 -4
12 2 4 36 -5 23 -13 46 -18 52 -6 7 -2 15 11 23 14 9 17 17 10 30 -17 32 2
122 26 122 8 0 12 4 8 10 -3 5 -12 7 -20 3 -10 -3 -15 2 -15 16 0 12 6 21 16
21 12 0 14 7 9 29 -3 16 -2 32 4 35 5 4 6 18 2 34 -4 15 -6 38 -5 52 8 60 13
87 18 110 3 14 11 59 18 100 6 41 15 78 20 81 6 3 3 9 -5 12 -11 4 -12 17 -6
63 4 32 6 60 4 63 -3 2 0 10 6 17 16 19 17 113 2 107 -7 -3 -13 0 -13 6 0 6 3
11 8 11 10 0 32 51 26 61 -3 5 2 9 10 9 13 0 13 3 1 27 -10 20 -11 31 -3 40 7
9 7 25 0 55 -9 35 -8 44 5 53 10 7 15 28 15 61 1 27 5 54 10 61 5 7 5 14 0 17
-5 3 -10 26 -10 52 -1 39 1 44 13 34 12 -10 15 -6 14 26 -1 22 2 65 6 97 6 40
4 57 -4 57 -6 0 -11 5 -11 10 0 6 6 9 13 8 8 -2 13 16 14 62 1 36 4 83 8 105
3 22 7 56 10 75 4 35 11 76 16 95 1 6 -1 23 -6 38 -5 18 -3 33 4 40 6 6 11 27
11 47 0 20 5 41 12 48 8 8 8 15 0 25 -12 14 -10 75 2 95 3 6 2 13 -3 17 -5 3
-8 15 -6 27 3 13 -3 29 -15 40 -25 23 -27 46 -2 27 15 -13 16 -12 3 4 -15 20
-51 22 -67 4z m3301 -1972 c22 -19 36 -34 30 -34 -5 0 -28 15 -49 34 -22 19
-35 35 -30 35 5 0 27 -16 49 -35z m-8 -65 c17 -10 37 -28 43 -39 6 -12 26 -28
45 -36 19 -7 35 -18 35 -23 0 -5 21 -31 46 -57 25 -27 63 -71 84 -99 20 -28
47 -60 59 -70 11 -11 21 -24 21 -29 0 -5 15 -29 34 -52 19 -23 43 -57 53 -76
11 -19 32 -40 46 -47 29 -14 62 -66 52 -82 -3 -6 0 -10 7 -10 12 0 42 -49 63
-100 6 -16 16 -32 56 -95 31 -49 155 -300 164 -335 4 -14 17 -44 30 -67 13
-23 26 -57 30 -75 4 -18 13 -40 20 -48 7 -8 16 -26 20 -40 10 -35 31 -85 66
-155 16 -34 29 -70 29 -82 0 -33 17 -71 43 -96 12 -12 18 -19 13 -14 -6 4 -14
7 -18 7 -15 0 -8 -17 19 -44 14 -14 23 -29 20 -33 -4 -3 -7 -1 -7 5 0 7 -5 12
-11 12 -7 0 -8 -7 -4 -17 4 -10 12 -40 17 -67 5 -27 20 -65 33 -84 13 -19 21
-40 19 -47 -3 -7 2 -27 11 -45 9 -17 18 -47 21 -67 2 -20 9 -42 15 -50 9 -10
8 -17 -2 -29 -9 -10 -9 -18 -2 -22 6 -4 14 -23 18 -42 4 -19 10 -39 14 -45 3
-5 7 -28 7 -50 2 -36 9 -89 30 -222 4 -24 11 -43 15 -43 5 0 9 -5 9 -11 0 -6
-7 -8 -16 -5 -12 5 -15 2 -10 -11 21 -53 33 -191 25 -263 -1 -8 -1 -32 -1 -54
2 -28 6 -37 16 -33 8 3 13 -1 12 -11 -1 -13 6 -16 27 -14 15 1 27 -2 27 -8 0
-5 -3 -9 -7 -9 -5 1 -23 1 -41 0 -28 -1 -32 -4 -27 -20 3 -11 1 -22 -5 -26 -6
-3 -7 -12 -3 -18 9 -15 5 -68 -7 -82 -5 -7 -8 -14 -5 -17 3 -2 1 -34 -3 -71
-5 -37 -5 -72 -1 -78 4 -7 4 -19 -1 -28 -12 -24 -31 -122 -25 -131 3 -5 0 -10
-6 -12 -6 -2 -13 -24 -16 -48 -3 -25 -9 -53 -14 -62 -5 -10 -7 -29 -3 -43 3
-14 2 -25 -2 -24 -20 3 -23 -2 -14 -26 6 -16 6 -25 0 -25 -5 0 -12 -10 -15
-22 -7 -29 -43 -46 -84 -40 -30 4 -31 6 -18 26 8 11 19 39 26 61 7 22 15 47
18 55 4 8 5 19 4 24 -1 5 7 28 18 50 11 23 24 57 30 76 5 19 17 54 26 78 8 24
13 48 10 53 -4 5 -1 9 4 9 6 0 11 13 11 29 0 17 4 32 9 35 11 7 21 123 14 159
-7 35 -47 56 -93 50 -47 -7 -63 -21 -55 -50 3 -13 1 -23 -4 -23 -5 0 -12 -21
-16 -47 -4 -25 -13 -57 -22 -69 -8 -13 -14 -25 -14 -28 1 -11 -14 -52 -27 -76
-34 -60 -41 -90 -21 -90 15 0 4 -61 -20 -115 -10 -22 -28 -63 -41 -91 -12 -29
-19 -57 -16 -63 12 -19 -51 -71 -87 -71 -149 -1 -285 -8 -302 -17 -11 -6 -29
-7 -40 -3 -11 5 -30 6 -42 3 -13 -3 -34 -3 -47 1 -21 5 -24 14 -35 98 -7 51
-16 115 -21 142 -8 49 -7 57 7 94 3 9 8 27 9 40 2 12 10 29 18 38 9 8 16 26
16 40 0 13 3 24 8 24 6 0 9 74 4 123 -2 18 -22 24 -22 6 0 -6 -7 -17 -15 -25
-8 -9 -15 -24 -15 -35 0 -11 -7 -22 -15 -25 -8 -4 -15 -14 -16 -23 0 -13 -1
-13 -6 -1 -2 8 -8 24 -13 35 -9 20 -25 136 -35 248 -3 32 -10 67 -15 78 -6 11
-8 29 -5 39 4 11 2 20 -4 20 -6 0 -10 10 -9 23 2 34 -12 163 -22 196 -4 16 -6
31 -4 34 2 2 -7 84 -21 183 -31 225 -31 226 -38 244 -9 26 -19 93 -17 129 0
19 -7 42 -16 53 -13 14 -15 21 -6 30 12 12 6 95 -9 113 -4 6 -9 31 -10 55 -1
25 -5 50 -8 55 -3 6 -6 21 -6 35 -3 68 -18 187 -26 201 -4 9 -4 20 1 25 5 5 5
27 -1 53 -5 24 -14 85 -19 135 -14 136 -18 156 -35 183 -13 19 -14 28 -5 38 7
9 9 23 4 37 -4 13 -7 26 -7 29 1 3 -2 35 -8 70 -5 35 -10 107 -10 159 0 99
-13 170 -30 170 -6 0 -6 6 0 18 16 30 19 133 4 139 -13 5 -12 50 3 178 3 28 7
84 10 125 9 159 19 230 32 230 4 0 21 -9 39 -20z m153 -83 c0 -6 -11 0 -25 13
-14 13 -25 28 -25 33 0 6 11 0 25 -13 14 -13 25 -28 25 -33z m94 -62 c9 -14
13 -25 9 -25 -12 1 -46 50 -35 50 6 0 17 -11 26 -25z m16 -67 c0 -15 -15 -8
-28 12 -12 19 -11 20 8 8 11 -7 20 -16 20 -20z m52 0 c-6 -6 -16 -7 -22 -3 -9
6 -9 9 1 16 17 10 34 0 21 -13z m134 -192 c2 -14 0 -15 -12 -5 -17 14 -19 32
-2 27 6 -2 12 -12 14 -22z m-41 -16 c10 -11 13 -20 7 -20 -6 0 -16 9 -22 20
-6 11 -9 20 -7 20 2 0 12 -9 22 -20z m169 -160 c9 0 16 -4 16 -10 0 -5 -4 -10
-10 -10 -5 0 -7 -7 -4 -15 11 -27 -4 -16 -25 21 -23 39 -28 59 -7 32 7 -10 21
-18 30 -18z m206 -282 c0 -13 -23 -5 -28 10 -2 7 2 10 12 6 9 -3 16 -11 16
-16z m-2615 -237 c7 -12 -12 -24 -25 -16 -11 7 -4 25 10 25 5 0 11 -4 15 -9z
m78 -5 c1 -5 -8 -11 -20 -12 -17 -3 -21 0 -16 12 6 16 33 16 36 0z m-17 -49
c1 -9 -2 -17 -7 -17 -5 0 -9 2 -9 4 0 2 -3 12 -7 22 -4 11 -2 15 7 12 7 -2 14
-12 16 -21z m-37 -14 c8 -18 9 -29 1 -37 -13 -13 -13 -66 0 -66 5 0 12 11 16
25 6 26 18 32 29 16 3 -5 1 -12 -5 -16 -5 -3 -10 -15 -10 -27 0 -15 -5 -19
-20 -15 -23 6 -27 -20 -9 -55 8 -14 8 -22 0 -27 -14 -9 -22 -232 -9 -248 7 -9
7 -13 0 -13 -6 0 -11 -8 -11 -17 0 -10 -3 -64 -7 -120 -6 -94 -5 -103 10 -103
10 0 16 -6 13 -12 -2 -7 -11 -12 -19 -10 -13 2 -15 -10 -11 -77 2 -48 -1 -82
-7 -86 -5 -3 -10 -13 -10 -22 0 -13 5 -12 25 7 23 22 25 22 25 4 -1 -24 -22
-52 -36 -47 -6 2 -14 -7 -16 -21 -4 -18 1 -30 16 -41 l21 -16 -21 6 c-19 5
-22 1 -26 -35 -2 -22 0 -47 5 -56 5 -9 5 -20 -1 -27 -5 -7 -12 -41 -16 -77 -3
-36 -9 -82 -12 -103 -6 -33 -4 -36 12 -30 15 6 15 3 -4 -17 -14 -15 -22 -37
-22 -59 -1 -20 -7 -65 -15 -101 -8 -36 -14 -80 -15 -98 0 -18 -6 -41 -12 -52
-10 -16 -10 -24 0 -40 16 -27 15 -41 -4 -38 -12 2 -17 -7 -19 -40 -5 -64 -33
-171 -59 -227 -23 -47 -30 -70 -43 -140 -3 -16 -9 -35 -14 -40 -4 -6 -18 -53
-30 -105 -12 -52 -25 -99 -29 -103 -8 -9 -80 55 -80 71 0 20 -52 72 -71 72
-24 0 -24 -1 1 -43 11 -19 22 -55 24 -80 2 -25 7 -50 11 -57 4 -6 5 -82 4
-168 l-3 -157 -36 -11 c-38 -11 -180 -8 -193 5 -17 17 30 358 54 387 5 6 30
14 55 18 41 5 48 3 69 -22 l24 -27 1 28 c0 54 -55 132 -101 142 -16 4 -29 7
-29 8 0 1 5 18 11 37 14 48 49 217 55 265 3 22 9 49 14 60 5 11 11 47 14 80 2
33 7 67 10 75 15 40 35 102 35 108 -1 4 -1 9 1 12 1 3 3 21 5 40 4 50 36 184
45 190 4 3 12 28 17 55 6 28 18 75 26 105 8 30 18 75 22 100 4 25 15 70 25
100 25 75 56 202 68 280 15 95 33 174 42 185 4 6 10 21 13 35 3 14 15 57 27
95 12 39 24 99 27 135 3 36 9 66 13 68 4 2 6 11 3 22 -3 10 2 33 11 52 9 19
18 49 19 67 2 26 6 31 20 27 13 -3 17 0 13 10 -3 8 1 14 9 14 8 0 15 6 15 13
0 14 19 37 30 37 4 0 12 -12 19 -27z m2667 -11 c-9 -8 -26 10 -26 26 1 15 2
15 15 -2 8 -11 13 -21 11 -24z m-913 -90 c6 -7 12 -27 14 -45 3 -30 3 -31 -14
-14 -11 10 -18 35 -19 60 -1 23 1 35 3 27 3 -8 10 -21 16 -28z m-1723 -152 c0
-5 -7 -10 -15 -10 -8 0 -15 5 -15 10 0 6 7 10 15 10 8 0 15 -4 15 -10z m2820
-232 c0 -6 -7 -5 -15 2 -8 7 -15 17 -15 22 0 6 7 5 15 -2 8 -7 15 -17 15 -22z
m-2838 -83 c0 -5 -5 -11 -11 -13 -6 -2 -11 4 -11 13 0 9 5 15 11 13 6 -2 11
-8 11 -13z m-1967 -278 c1 -140 11 -372 25 -532 11 -135 9 -84 15 -445 7 -453
12 -557 28 -640 9 -41 19 -95 22 -120 4 -25 11 -49 15 -55 4 -5 10 -45 14 -87
l7 -78 -28 0 c-122 1 -516 -11 -524 -15 -5 -4 -16 -1 -24 5 -8 6 -20 8 -26 4
-7 -4 -116 -9 -243 -10 -127 -2 -289 -6 -359 -9 -71 -3 -133 -3 -138 1 -6 3 5
20 25 38 19 17 38 45 42 61 7 31 40 75 57 75 5 0 19 8 31 18 20 15 21 19 8 31
-12 12 -12 15 2 23 9 5 27 20 41 34 13 13 32 24 42 24 17 1 17 1 1 14 -10 7
-18 17 -18 22 0 12 30 38 53 47 21 8 22 26 3 33 -16 6 -11 34 6 34 5 0 6 -5 2
-11 -4 -8 1 -9 17 -4 33 10 36 15 16 26 -25 14 -21 38 8 51 14 6 25 19 25 28
0 22 28 46 65 54 47 12 56 23 39 54 -16 31 -18 52 -6 52 19 0 52 38 52 59 0
18 4 21 20 16 17 -6 20 -2 20 29 0 35 27 64 45 48 4 -4 5 6 1 21 -5 23 -1 34
24 58 16 17 34 28 39 24 14 -8 31 28 21 45 -10 16 6 53 19 45 5 -2 11 9 15 26
3 18 13 33 25 36 13 3 17 11 14 24 -3 10 -1 19 5 19 6 0 13 14 17 30 4 17 15
36 26 43 10 6 19 16 19 22 0 11 44 100 58 119 5 6 15 32 23 59 7 26 17 47 21
47 4 0 8 6 8 13 0 8 9 22 21 33 11 10 18 26 16 35 -2 9 4 21 15 28 10 6 16 16
13 21 -3 5 4 25 15 45 11 19 20 40 20 46 0 5 10 23 21 38 12 16 18 34 15 40
-4 6 0 11 9 11 9 0 15 6 14 13 -3 26 2 46 14 59 8 7 20 31 26 53 7 22 15 47
18 55 4 8 5 19 4 23 -1 5 8 24 19 42 11 18 20 37 19 42 -3 20 2 33 14 33 9 0
12 -31 12 -123z m1970 34 c10 -17 -12 -21 -25 -6 -10 12 -10 15 3 15 9 0 18
-4 22 -9z m1832 -136 c9 -25 -4 -29 -17 -6 -7 15 -7 21 0 21 6 0 13 -7 17 -15z
m8091 -833 c2 -12 8 -22 13 -22 6 0 7 -5 4 -10 -4 -6 -11 -7 -17 -4 -6 4 -8 2
-4 -4 3 -6 3 -13 -2 -16 -4 -2 -13 4 -20 14 -6 11 -8 22 -3 25 5 3 7 15 4 26
-4 16 -2 20 8 17 8 -2 15 -14 17 -26z m-138 -43 c0 -5 -9 -1 -20 8 -11 10 -20
22 -20 27 0 5 9 1 20 -9 11 -10 20 -22 20 -26z m-3040 -173 c0 -3 -7 -12 -16
-20 -23 -23 -40 -19 -19 4 16 18 35 26 35 16z m-2095 -45 c33 -17 75 -45 93
-61 19 -17 38 -30 43 -30 5 0 9 -7 9 -15 0 -8 5 -15 10 -15 6 0 10 -4 10 -9 0
-5 -24 -9 -53 -10 -30 0 -66 -5 -82 -11 -29 -11 -79 -20 -130 -24 -52 -5 -95
-17 -95 -28 0 -7 -5 -6 -14 1 -10 8 -21 9 -33 3 -17 -9 -50 -21 -181 -66 -35
-12 -68 -29 -73 -37 -5 -8 -9 -10 -9 -6 0 14 -264 -125 -312 -164 -26 -22 -51
-39 -56 -39 -5 0 -15 -7 -22 -15 -7 -8 -21 -15 -31 -15 -34 0 -8 38 90 134 21
22 29 36 22 40 -6 4 -16 4 -23 0 -7 -4 -8 -3 -4 4 4 7 18 12 31 12 17 0 60 35
149 123 148 144 156 151 163 143 3 -3 20 5 37 17 17 12 49 27 71 34 68 19 117
40 124 52 4 6 15 9 24 6 9 -4 24 -2 34 4 35 20 143 6 208 -28z m2178 5 c18 -7
47 -29 64 -49 34 -39 69 -104 60 -113 -3 -3 -27 -7 -55 -9 -27 -2 -66 -7 -86
-11 -21 -3 -58 -8 -84 -9 -147 -9 -203 -18 -197 -33 5 -12 3 -13 -10 -2 -22
18 -16 56 8 52 12 -2 21 7 28 27 6 17 15 29 19 26 8 -5 55 65 52 78 -1 4 7 7
19 7 15 0 19 4 15 16 -5 13 -1 15 19 10 17 -4 31 -1 41 9 19 19 64 19 107 1z
m172 -22 c17 -14 21 -21 10 -16 -30 16 -61 41 -50 41 6 0 24 -11 40 -25z
m2275 -175 c25 -5 86 -11 135 -14 107 -6 237 -24 255 -35 10 -6 8 -18 -9 -56
-18 -40 -34 -56 -84 -86 -91 -54 -183 -88 -237 -88 -43 0 -79 18 -64 32 3 3
-1 21 -9 39 -7 19 -12 39 -10 46 2 6 -1 14 -6 18 -6 3 -11 15 -11 25 0 10 -13
28 -30 40 -17 12 -27 27 -24 35 3 7 -4 20 -15 27 -12 7 -21 16 -21 20 0 11 75
9 130 -3z m-1101 -45 c2 -2 10 1 18 7 9 9 17 8 27 0 11 -9 20 -9 35 -2 11 6
31 11 44 11 20 0 24 -5 23 -29 -1 -16 -3 -29 -6 -29 -20 1 -30 -8 -53 -51 -15
-27 -33 -54 -41 -60 -8 -7 -18 -31 -21 -54 -4 -23 -13 -49 -20 -57 -7 -8 -21
-43 -31 -77 -10 -35 -22 -63 -25 -63 -4 0 -9 21 -12 48 -7 74 -27 221 -38 286
-8 45 -7 61 2 66 8 6 6 9 -7 13 -10 3 8 3 41 0 33 -3 62 -7 64 -9z m-6219 -9
c0 -8 -4 -15 -10 -15 -5 0 -10 7 -10 15 0 8 5 15 10 15 6 0 10 -7 10 -15z
m1954 -4 c3 -5 -3 -11 -14 -14 -20 -5 -26 3 -13 16 9 10 21 9 27 -2z m981 -46
c7 -39 9 -82 7 -120 l-2 -31 -142 -13 c-174 -16 -209 -20 -218 -26 -8 -5 -76
-11 -247 -21 -62 -3 -113 -9 -113 -13 0 -5 -27 -6 -60 -4 -33 2 -60 0 -60 -4
0 -13 -53 -8 -58 5 -1 5 6 13 17 17 10 3 22 12 25 20 3 8 12 12 20 9 9 -3 19
3 26 16 8 14 17 19 30 15 10 -3 27 -2 37 4 10 5 26 12 36 15 13 4 17 12 12 26
-4 11 -2 20 4 20 6 0 11 -4 11 -10 0 -5 16 -10 35 -10 19 0 35 5 35 10 0 6 7
10 15 10 8 0 29 6 47 14 127 55 239 86 325 89 28 1 54 4 56 7 3 3 40 5 81 5
l76 0 5 -30z m2475 -1 c0 -8 -7 -14 -15 -14 -8 0 -27 -16 -42 -36 -15 -20 -36
-46 -46 -56 -10 -11 -16 -22 -13 -25 3 -4 -3 -12 -14 -20 -11 -8 -20 -21 -20
-29 0 -8 -8 -22 -17 -32 -10 -10 -23 -27 -29 -37 -6 -11 -15 -15 -22 -11 -14
8 -16 53 -4 58 9 3 -9 141 -23 171 -16 37 37 53 160 49 65 -3 85 -7 85 -18z
m2658 16 c63 -6 121 -14 130 -19 10 -5 43 -11 75 -15 32 -3 62 -8 67 -11 4 -3
50 -7 101 -11 92 -5 118 -12 152 -42 21 -19 22 -33 2 -26 -11 5 -13 2 -9 -10
4 -9 18 -16 34 -16 16 0 32 -4 35 -10 3 -5 1 -10 -6 -10 -8 0 -8 -4 1 -15 7
-8 17 -15 23 -15 5 0 19 -9 31 -21 54 -54 103 -89 125 -89 16 0 21 -4 17 -15
-3 -9 0 -15 9 -15 15 0 30 -34 20 -49 -8 -15 15 -25 28 -12 39 39 36 -33 -3
-79 -16 -19 -30 -38 -30 -41 0 -3 -12 -19 -27 -35 l-26 -29 7 44 c6 39 5 43
-9 31 -8 -7 -15 -18 -15 -26 0 -7 -16 -30 -36 -51 -34 -35 -32 -63 2 -29 8 9
20 13 26 10 7 -4 -5 -22 -30 -46 -50 -47 -70 -78 -48 -78 8 0 18 5 21 10 3 6
14 10 23 10 13 0 10 -6 -12 -25 -33 -28 -42 -30 -50 -12 -3 9 -9 7 -19 -5 -8
-10 -19 -18 -25 -18 -15 0 -8 50 9 60 7 5 11 11 8 15 -3 3 -30 -17 -60 -45
-30 -27 -61 -50 -69 -50 -17 0 -140 -59 -163 -78 -24 -20 -170 -63 -232 -68
-33 -3 -96 -9 -140 -15 -135 -16 -176 -12 -223 18 -35 23 -42 33 -42 59 0 17
-7 37 -15 44 -8 7 -15 20 -15 30 0 9 -2 19 -5 22 -11 11 -13 194 -4 243 14 68
81 275 91 281 4 3 8 14 8 25 0 27 34 91 65 125 15 17 24 36 22 46 -3 10 -1 18
4 18 5 0 14 11 19 25 11 29 7 28 158 15z m-10788 -60 c0 -5 -9 -10 -19 -10
-11 0 -23 5 -26 10 -4 6 5 10 19 10 14 0 26 -4 26 -10z m6980 -64 c0 -8 -4
-18 -10 -21 -5 -3 -10 -13 -10 -21 0 -9 -7 -22 -15 -30 -8 -8 -12 -21 -9 -29
4 -8 2 -15 -3 -15 -6 0 -16 -19 -23 -42 -7 -24 -19 -62 -26 -86 -8 -23 -14
-50 -14 -59 0 -20 -32 -126 -40 -133 -3 -3 -14 -22 -23 -42 -15 -32 -57 -71
-57 -53 0 9 22 49 30 55 12 9 50 109 50 132 0 13 -2 38 -4 57 -3 21 1 40 10
48 8 8 14 26 13 41 l0 27 -10 -25 c-6 -13 -16 -31 -23 -40 -7 -8 -19 -36 -26
-63 -7 -26 -17 -50 -21 -53 -5 -3 -9 -12 -9 -20 0 -11 6 -13 21 -9 20 7 20 6
-3 -28 -12 -20 -25 -34 -27 -32 -2 3 2 11 9 20 7 9 10 18 7 21 -9 9 -27 -5
-27 -22 0 -8 -4 -14 -10 -14 -17 0 -11 -18 8 -23 12 -3 10 -5 -7 -6 -18 -1
-22 -5 -18 -21 3 -11 1 -20 -4 -20 -5 0 -15 -12 -23 -27 -16 -31 -106 -127
-119 -128 -5 0 -14 -8 -21 -17 -7 -10 -15 -15 -18 -12 -3 3 -18 -6 -33 -20
-15 -14 -43 -30 -63 -37 -21 -7 -39 -15 -42 -18 -3 -3 -40 -24 -83 -45 -64
-32 -91 -40 -152 -44 -41 -2 -75 -8 -75 -12 0 -4 15 -12 33 -18 22 -7 26 -10
12 -11 -11 -1 -38 8 -59 20 -21 11 -44 18 -51 15 -8 -3 -34 5 -59 17 -77 38
-126 134 -126 247 0 31 -5 71 -11 87 -8 23 -6 45 5 91 18 67 21 182 6 182 -18
0 -11 40 13 74 20 29 25 32 57 25 19 -4 39 -4 44 1 4 4 21 4 37 0 32 -10 69
-3 69 13 0 6 3 7 7 4 3 -4 12 -2 20 4 10 9 13 8 13 0 0 -17 179 -10 189 8 5 7
24 12 47 11 22 -2 55 4 75 13 20 9 59 19 88 23 30 4 55 13 58 20 3 8 10 14 15
14 6 0 8 -7 5 -15 -9 -22 4 -25 51 -13 25 6 42 16 42 25 0 12 3 12 16 -1 19
-20 29 -20 47 -1 10 9 17 11 19 4 3 -8 25 -6 71 6 38 9 74 18 82 19 8 1 18 5
21 9 14 13 64 8 64 -7z m-7992 -18 c-2 -6 -10 -14 -16 -16 -7 -2 -10 2 -6 12
7 18 28 22 22 4z m3759 -128 c-3 -11 -2 -34 2 -52 7 -32 7 -33 -26 -35 -26 -3
-33 1 -33 16 0 10 7 24 15 31 8 7 15 18 15 24 0 11 19 36 28 36 2 0 2 -9 -1
-20z m2905 -55 c11 -41 -1 -142 -23 -185 -40 -81 -50 -110 -43 -121 5 -9 1
-10 -14 -7 -29 8 -38 -9 -18 -31 20 -22 20 -30 2 -50 -8 -9 -26 -38 -41 -65
-29 -53 -137 -165 -198 -206 -20 -14 -37 -33 -37 -42 0 -21 -18 -24 -26 -4 -3
8 18 36 51 67 32 30 96 99 144 154 47 55 89 102 94 103 10 5 9 32 -2 32 -5 0
-17 -12 -26 -27 -10 -16 -31 -38 -46 -51 -16 -13 -29 -30 -29 -38 0 -8 -8 -18
-17 -21 -19 -7 -45 -27 -80 -60 -13 -13 -26 -23 -28 -23 -2 0 -20 -11 -40 -24
-20 -14 -49 -27 -65 -31 -17 -4 -30 -10 -30 -15 0 -4 -19 -11 -42 -15 -24 -4
-46 -12 -49 -16 -3 -5 -19 -11 -36 -12 -17 -1 -29 -5 -26 -9 2 -5 -4 -9 -14
-10 -25 -2 -35 -4 -58 -13 -11 -4 -51 -19 -90 -33 -70 -26 -92 -38 -84 -46 4
-4 141 33 182 49 9 4 17 3 17 -3 0 -6 -17 -16 -37 -22 -21 -7 -42 -17 -48 -22
-14 -14 67 -1 135 22 30 10 69 21 85 24 17 4 39 10 50 13 17 5 18 4 3 -10 -9
-9 -27 -18 -41 -21 -13 -2 -33 -9 -43 -14 -18 -10 -82 -30 -164 -51 -92 -25
-239 -65 -275 -76 -49 -16 -125 -29 -125 -22 0 3 24 13 53 22 28 10 56 21 62
26 5 5 18 9 30 9 23 0 91 23 102 34 5 4 -8 7 -27 5 -19 -2 -40 0 -47 4 -6 4
-13 2 -15 -4 -2 -6 -68 -18 -148 -26 -120 -14 -160 -14 -239 -5 -52 7 -99 16
-105 21 -6 4 -36 17 -66 27 -30 10 -61 24 -68 31 -6 6 -21 15 -32 18 -25 8
-26 21 -3 34 14 7 26 4 48 -13 16 -12 61 -40 100 -61 67 -37 73 -39 175 -41
108 -2 205 5 196 14 -3 3 -47 5 -98 6 -69 1 -99 5 -118 18 -14 9 -38 20 -55
23 -57 12 -90 29 -115 59 -44 51 -49 116 -10 116 20 0 36 33 25 51 -9 14 14
99 33 121 12 14 12 21 3 32 -7 9 -8 17 -2 20 5 3 11 0 13 -6 3 -8 10 -3 18 12
9 17 10 25 2 28 -13 4 40 52 57 52 10 0 15 20 12 47 -1 8 7 12 21 10 20 -2 22
2 20 29 -3 26 4 37 39 68 24 20 51 36 61 36 10 0 18 6 18 13 0 14 54 50 63 41
3 -3 11 -3 18 2 7 4 37 6 66 5 32 -1 53 2 53 8 0 6 6 8 14 5 8 -3 17 -1 21 5
4 8 12 8 26 1 11 -6 24 -8 31 -4 12 8 115 14 241 14 48 0 87 3 87 7 0 5 46 7
102 7 62 -1 106 3 110 9 8 12 35 16 148 17 47 1 105 5 130 10 64 11 73 9 82
-25z m-3952 -5 c0 -11 -4 -20 -9 -20 -11 0 -22 26 -14 34 12 12 23 5 23 -14z
m2458 -84 c17 -3 32 -1 32 5 0 5 13 9 30 9 l30 0 -20 -32 c-31 -51 -43 -81
-42 -103 1 -12 -8 -25 -20 -30 -12 -6 -26 -19 -32 -29 -6 -11 -19 -29 -28 -40
-10 -11 -18 -25 -18 -31 0 -7 -13 -26 -30 -43 -16 -18 -30 -38 -30 -46 0 -7
-7 -19 -15 -26 -9 -7 -13 -15 -11 -18 3 -2 -4 -16 -14 -30 -11 -13 -20 -33
-20 -44 0 -10 -7 -21 -15 -24 -8 -4 -15 -10 -15 -16 0 -5 5 -6 10 -3 6 3 10 0
10 -8 0 -8 -7 -14 -16 -13 -9 0 -24 -14 -34 -31 -9 -18 -20 -30 -24 -26 -3 3
-6 -19 -6 -50 0 -53 -16 -87 -41 -87 -14 0 -11 15 11 43 24 30 25 37 5 37 -8
0 -22 -11 -32 -25 -28 -40 -111 -125 -122 -125 -5 0 -32 -14 -59 -30 -26 -17
-55 -28 -63 -25 -15 6 -41 59 -67 138 -13 40 -13 53 -2 90 7 23 17 46 22 51 4
6 8 17 8 25 0 9 9 27 20 41 11 14 20 33 20 43 0 9 5 17 11 17 6 0 9 8 7 18 -2
9 3 25 12 34 12 13 38 83 44 118 1 3 10 25 21 49 l19 44 -29 23 c-17 13 -35
24 -41 24 -5 0 -25 -37 -43 -82 -43 -109 -112 -250 -119 -243 -14 14 -15 140
-2 182 23 71 47 133 57 145 6 7 13 29 17 49 8 45 21 55 66 55 28 -1 36 -5 38
-23 2 -13 -1 -23 -6 -23 -19 0 3 -48 30 -70 34 -26 44 -21 53 30 4 22 11 40
16 40 5 0 9 11 9 24 0 27 30 37 110 36 25 0 50 3 57 7 11 8 193 7 251 -1z
m-810 -33 c24 2 27 -1 28 -33 0 -19 -2 -37 -5 -40 -11 -9 -39 -74 -45 -102 -4
-16 -11 -28 -16 -28 -14 0 -96 -130 -141 -226 -22 -45 -48 -89 -59 -99 -11
-10 -20 -26 -20 -37 0 -10 -4 -18 -9 -18 -14 0 -41 -59 -30 -66 10 -6 3 -24
-10 -24 -5 0 -11 9 -14 21 -5 17 -9 19 -26 10 -27 -15 -31 -14 -31 8 0 11 -4
22 -8 25 -5 3 -6 28 -2 56 4 27 5 52 2 54 -2 2 -6 37 -8 78 -3 40 -9 100 -14
133 -5 33 -12 109 -16 169 l-7 109 28 -5 c34 -7 95 9 95 24 0 6 8 4 18 -5 24
-22 232 -15 247 8 9 13 10 13 13 1 2 -9 14 -14 30 -13z m-2721 -38 c0 -8 -6
-16 -14 -19 -9 -4 -13 3 -13 19 0 16 4 23 13 19 8 -3 14 -11 14 -19z m2053 10
c0 -18 1 -18 36 0 19 10 32 11 40 4 15 -12 31 -105 39 -224 4 -49 9 -108 12
-130 3 -22 7 -62 9 -90 11 -155 13 -184 19 -220 6 -34 3 -44 -17 -65 -19 -21
-31 -25 -73 -22 -63 3 -90 17 -114 57 -27 46 -48 160 -53 285 0 8 7 74 17 145
10 72 19 150 21 175 4 64 13 90 30 83 8 -3 14 0 14 6 0 6 5 11 10 11 6 0 10
-7 10 -15z m-1740 -20 c0 -8 5 -15 12 -15 6 0 8 -3 5 -6 -8 -8 -37 14 -37 27
0 5 5 9 10 9 6 0 10 -7 10 -15z m1545 -2 c3 -10 1 -19 -4 -21 -6 -2 -11 -22
-11 -45 0 -23 -7 -85 -15 -137 -26 -167 -30 -335 -11 -422 9 -42 24 -82 32
-89 9 -7 24 -29 34 -48 26 -52 62 -81 106 -88 21 -3 48 -12 59 -19 24 -15 102
-16 126 -1 37 23 47 4 48 -104 1 -56 6 -110 12 -121 6 -10 8 -27 4 -37 -3 -10
-6 -45 -6 -79 -1 -56 -3 -62 -36 -88 -19 -15 -39 -38 -44 -51 -5 -13 -14 -23
-22 -23 -7 0 -33 -20 -57 -45 -24 -25 -48 -45 -53 -45 -5 0 -28 -16 -51 -35
-24 -19 -47 -35 -51 -35 -5 0 -39 -22 -77 -50 -38 -27 -73 -50 -79 -50 -6 0
-8 -9 -4 -20 5 -17 2 -20 -24 -20 -17 0 -50 -11 -73 -25 -24 -14 -69 -39 -100
-55 -32 -17 -58 -35 -58 -40 0 -6 -9 -10 -19 -10 -11 0 -32 -11 -47 -25 -16
-15 -39 -25 -55 -25 -16 0 -29 -4 -29 -10 0 -5 -9 -10 -20 -10 -10 0 -24 -9
-30 -20 -6 -11 -19 -20 -30 -20 -10 0 -21 -4 -24 -9 -3 -5 -14 -7 -24 -5 -9 3
-27 -4 -39 -15 -12 -12 -28 -21 -36 -21 -7 0 -32 -9 -55 -20 -22 -11 -47 -20
-54 -20 -7 0 -36 -11 -65 -24 -28 -13 -54 -22 -56 -19 -3 2 -13 0 -24 -6 -18
-11 -76 -33 -81 -32 -1 1 -15 -5 -31 -13 -16 -9 -31 -13 -33 -10 -3 3 -24 -2
-46 -11 -28 -11 -39 -21 -35 -31 6 -17 -8 -19 -24 -3 -8 8 -20 7 -44 -5 -18
-9 -42 -16 -53 -16 -12 0 -52 -11 -91 -24 -38 -13 -73 -22 -78 -19 -4 2 -19
-3 -33 -12 -13 -9 -29 -13 -35 -10 -5 4 -15 2 -22 -3 -12 -10 -110 -36 -182
-48 -22 -3 -47 -13 -55 -20 -9 -7 -24 -13 -35 -13 -35 1 -98 -11 -109 -20 -6
-5 -28 -12 -49 -16 -31 -6 -37 -11 -32 -26 4 -11 2 -19 -4 -19 -6 0 -11 7 -11
15 0 11 -11 13 -52 8 -29 -3 -57 -9 -63 -13 -5 -4 -32 -10 -58 -13 -27 -4 -54
-11 -61 -16 -7 -6 -26 -11 -42 -11 -55 0 -132 -8 -143 -15 -14 -8 -47 -16 -86
-20 -138 -15 -287 -43 -299 -55 -6 -6 -14 -6 -23 1 -7 7 -20 8 -30 3 -10 -4
-31 -9 -48 -10 -50 -4 -129 -15 -145 -21 -8 -3 -24 -7 -35 -8 -81 -12 -116
-16 -155 -19 -168 -13 -226 -19 -235 -26 -5 -5 -25 -6 -43 -4 -27 3 -34 -1
-42 -19 -7 -18 -9 -19 -9 -3 -1 15 -6 17 -28 11 -16 -4 -71 -9 -123 -11 -70
-4 -97 -9 -103 -20 -6 -10 -13 -12 -20 -6 -7 5 -40 9 -75 8 -34 -1 -62 2 -62
5 0 4 -19 3 -42 -1 -23 -5 -48 -6 -55 -3 -7 3 -13 1 -13 -5 0 -6 -47 -10 -117
-10 -65 0 -161 -1 -213 -1 -231 -3 -477 13 -695 45 -16 2 -77 11 -134 19 -58
9 -124 22 -148 30 -24 8 -62 15 -84 15 -27 0 -38 4 -33 11 4 8 -1 9 -15 4 -12
-4 -27 -2 -34 3 -12 9 -16 10 -78 15 -20 2 -61 14 -92 26 -34 14 -70 22 -90
19 -23 -2 -39 2 -52 15 -15 14 -28 17 -54 12 -27 -5 -33 -4 -28 8 4 12 -7 16
-51 22 -58 7 -142 41 -142 58 0 5 -7 6 -16 3 -8 -3 -25 0 -37 6 -12 7 -26 11
-30 10 -4 -1 -14 3 -21 10 -37 36 -58 48 -80 48 -33 0 -57 10 -50 21 3 5 -8
12 -25 15 -17 4 -31 10 -31 14 0 5 -15 13 -33 19 -19 7 -40 23 -47 36 -8 16
-20 23 -29 20 -19 -6 -46 9 -38 22 3 5 -16 19 -43 32 -49 23 -104 71 -82 71 7
0 12 4 12 10 0 5 -7 7 -15 4 -9 -4 -15 0 -15 8 0 8 -11 20 -24 27 -13 7 -32
31 -42 52 -11 21 -25 39 -33 39 -9 0 -11 7 -8 21 4 14 1 19 -7 16 -17 -7 -49
19 -41 33 4 6 -3 22 -15 35 -12 13 -19 28 -16 33 3 5 -5 17 -18 27 -14 11 -22
25 -19 35 3 12 -2 20 -16 25 -12 3 -22 9 -22 13 -1 4 -3 20 -5 35 -3 27 -38
70 -64 79 -14 4 -21 56 -9 64 5 3 9 -2 9 -10 0 -9 5 -16 11 -16 13 0 5 56 -11
75 -6 8 -9 18 -6 24 3 5 0 12 -6 14 -8 4 -7 6 4 6 22 1 27 19 16 59 -5 18 -6
37 -3 42 3 6 2 10 -2 10 -14 0 -9 65 7 77 13 11 13 12 -2 13 -10 0 -18 5 -18
10 0 6 -6 10 -14 10 -15 0 -31 -76 -21 -101 7 -19 -19 -54 -34 -45 -6 4 -8 13
-4 19 5 7 13 48 19 92 14 95 18 112 27 121 4 4 7 17 7 29 0 12 11 43 25 68 14
27 22 54 18 64 -4 10 -2 14 4 10 14 -9 23 39 11 51 -6 6 -6 12 1 16 6 4 11 2
11 -3 0 -6 7 -11 15 -11 8 0 15 7 15 15 0 8 4 15 8 15 4 0 16 14 26 30 9 17
28 41 41 54 13 13 21 27 18 30 -4 3 1 6 10 6 9 0 21 9 27 20 12 23 7 25 -22 9
-15 -8 -19 -8 -14 0 4 6 1 11 -6 11 -7 0 11 12 40 27 38 18 49 29 40 35 -10 6
-7 13 12 28 14 11 30 20 37 20 21 0 25 21 7 41 -16 18 -16 19 0 19 9 0 15 -4
11 -9 -10 -17 18 -24 30 -8 7 10 19 17 26 17 8 0 30 13 49 30 19 16 41 29 48
30 6 0 12 5 12 11 0 7 10 9 25 5 17 -4 23 -3 20 6 -5 12 64 48 91 48 23 0 114
33 114 41 0 5 10 8 23 8 23 -1 74 14 120 37 16 8 38 14 49 14 24 0 98 20 113
31 28 20 294 58 453 64 62 2 118 7 124 11 22 14 388 38 388 25 0 -8 -90 -91
-99 -91 -3 0 -17 -17 -31 -38 -32 -48 -153 -172 -168 -172 -7 0 -23 -18 -36
-39 -14 -22 -51 -60 -83 -85 -32 -25 -70 -57 -85 -71 -15 -14 -31 -25 -37 -25
-6 0 -19 -6 -28 -14 -10 -8 -56 -43 -103 -77 -47 -35 -123 -96 -169 -136 -46
-40 -90 -73 -97 -73 -7 0 -23 -13 -36 -29 -13 -15 -36 -37 -53 -47 -16 -11
-79 -66 -138 -124 -92 -89 -106 -106 -93 -116 21 -15 20 -29 -3 -45 -10 -8
-21 -31 -24 -52 l-6 -38 37 7 c37 7 172 89 172 105 0 5 6 9 13 9 17 0 77 65
77 83 0 20 21 36 37 30 13 -5 13 -2 5 14 -10 17 -5 26 34 62 24 22 54 41 65
41 16 0 19 4 14 20 -5 15 -2 20 14 20 11 0 33 14 49 30 17 17 34 30 39 30 4 0
14 9 21 20 6 11 18 17 26 14 9 -4 16 2 18 17 2 12 16 30 33 39 30 17 50 17 40
-1 -4 -5 -1 -9 4 -9 6 0 11 7 11 16 0 20 79 104 97 104 7 0 13 7 13 15 0 10
11 15 35 15 24 0 35 5 35 14 0 21 102 119 147 142 21 10 41 24 45 29 4 6 48
51 99 102 60 59 92 99 93 114 1 14 8 25 18 27 25 5 118 103 118 125 0 9 4 17
9 17 5 0 17 8 27 18 24 24 1 22 369 34 154 5 296 10 316 11 20 1 43 8 52 15 9
8 18 9 21 3 3 -5 0 -12 -6 -14 -7 -3 10 -6 38 -6 28 -1 53 1 56 4 2 3 133 7
290 9 l285 5 8 -72 c9 -87 10 -98 19 -117 3 -8 7 -35 10 -60 4 -55 36 -130 54
-130 10 0 12 -10 7 -40 -4 -25 -3 -40 4 -40 5 0 18 -25 27 -55 10 -30 21 -55
26 -55 4 0 8 -7 8 -15 0 -30 164 -325 181 -325 5 0 9 -11 9 -25 0 -14 5 -25
10 -25 6 0 10 -5 10 -11 0 -18 69 -99 84 -99 7 0 23 -11 36 -25 13 -14 30 -23
38 -20 8 3 21 -4 30 -14 10 -11 35 -22 58 -26 39 -6 43 -4 95 47 30 29 67 60
83 68 17 8 59 54 95 101 58 75 150 184 189 225 22 22 29 17 48 -36 10 -27 22
-50 26 -50 4 0 8 -9 8 -21 0 -24 28 -88 47 -107 7 -8 18 -22 23 -33 6 -10 17
-19 24 -19 8 0 31 -17 52 -37 70 -68 103 -93 123 -93 11 0 21 -4 23 -9 2 -5
43 -23 91 -40 80 -28 100 -31 209 -31 86 0 127 4 146 15 15 8 53 26 85 40 45
21 88 57 195 163 139 139 222 235 222 256 0 6 9 17 20 24 12 7 18 18 14 24 -5
7 -2 9 8 5 19 -7 53 27 43 42 -3 6 1 11 10 11 9 0 21 13 26 29 6 17 26 39 44
50 19 11 45 37 58 58 13 21 34 47 46 57 12 11 30 38 40 60 10 23 25 47 34 55
18 14 23 41 8 41 -5 0 -20 -15 -32 -32 -13 -18 -27 -34 -31 -36 -4 -2 -8 -10
-8 -18 0 -8 -4 -14 -9 -14 -6 0 -25 -16 -44 -36 l-34 -37 0 27 c0 19 6 28 23
32 13 3 24 11 24 16 0 6 19 29 43 52 23 24 59 63 80 87 21 24 36 36 33 27 -3
-10 -1 -18 4 -18 11 0 23 37 16 49 -4 5 -1 21 5 35 9 20 21 26 58 31 88 11
286 58 301 70 8 8 32 16 53 20 20 4 40 11 43 16 3 5 16 9 30 9 13 0 24 4 24 8
0 9 67 29 128 38 23 4 45 11 48 15 8 14 21 10 29 -8z m-585 -7 c36 2 72 3 80
3 8 0 41 0 73 1 34 1 57 -3 57 -9 0 -6 -10 -11 -23 -11 -13 0 -26 -2 -29 -5
-9 -9 -223 -15 -236 -7 -7 5 -10 16 -6 26 4 10 10 13 13 8 3 -5 35 -8 71 -6z
m-432 -8 c8 -8 15 -8 27 2 10 8 19 9 28 3 6 -6 54 -9 105 -7 50 1 92 -1 92 -5
0 -16 -25 -31 -52 -31 -20 0 -26 -4 -22 -15 5 -12 0 -14 -27 -8 -19 3 -36 9
-39 13 -3 4 -25 11 -50 15 -58 10 -90 22 -90 35 0 13 13 13 28 -2z m-319 -28
c7 0 30 -13 51 -30 21 -16 45 -30 54 -30 10 0 34 -9 54 -19 54 -28 103 -41
164 -45 29 -1 63 -8 76 -15 18 -10 22 -9 22 4 0 12 11 14 50 12 l50 -2 0 -37
c0 -20 -4 -40 -10 -43 -5 -3 -10 -13 -10 -21 0 -18 -70 -124 -81 -124 -5 0 -9
-7 -9 -15 0 -8 -6 -15 -12 -15 -14 0 -68 -63 -68 -79 0 -6 -4 -11 -8 -11 -5 0
-32 -28 -61 -62 -77 -93 -169 -186 -177 -179 -4 3 -4 0 0 -7 9 -15 -12 -44
-26 -36 -5 3 -4 12 3 20 8 10 8 14 0 14 -6 0 -24 -20 -40 -45 -16 -26 -42 -57
-58 -71 -65 -58 -73 -66 -67 -75 3 -5 -1 -9 -9 -9 -8 0 -59 -33 -113 -74 -92
-68 -104 -74 -164 -81 -106 -13 -158 -11 -213 7 -28 9 -54 15 -58 12 -4 -2
-23 12 -43 31 -21 19 -43 35 -50 35 -14 0 -99 88 -116 119 -5 11 -16 25 -22
33 -7 7 -18 24 -24 38 -7 14 -23 50 -37 80 -22 49 -33 83 -51 169 -3 17 5 36
30 66 18 23 34 48 34 55 0 10 51 83 70 100 15 13 49 82 65 131 10 30 22 59 27
66 6 7 15 34 22 60 11 43 16 49 49 57 20 5 37 13 37 18 0 4 5 8 11 8 5 0 7 -5
3 -11 -4 -8 1 -9 16 -4 12 4 135 7 273 7 147 0 257 4 264 10 7 5 21 7 33 3 13
-4 20 -2 20 6 0 8 6 6 18 -4 10 -10 24 -17 31 -17z m-898 -7 c2 -49 -2 -77
-18 -110 -8 -18 -12 -36 -9 -41 3 -5 -2 -21 -10 -36 -7 -16 -14 -36 -14 -46 0
-9 -9 -25 -20 -35 -11 -10 -20 -23 -20 -29 0 -6 -11 -24 -24 -41 -31 -38 -43
-27 -50 40 -3 28 -9 62 -13 75 -5 14 -8 63 -8 109 0 95 -6 88 95 92 54 2 84
15 76 35 -3 8 -1 14 4 14 6 0 10 -12 11 -27z m1739 -23 c0 -5 -7 -10 -15 -10
-8 0 -15 5 -15 10 0 6 7 10 15 10 8 0 15 -4 15 -10z m-2530 -17 c0 -7 -4 -13
-10 -13 -5 0 -10 -9 -10 -20 0 -11 -4 -20 -8 -20 -10 0 -34 -46 -39 -75 -3
-19 -11 -44 -29 -90 -11 -28 -13 -42 -18 -102 -2 -28 -7 -57 -11 -63 -6 -10
-8 -241 -2 -258 6 -18 -19 -12 -29 7 -6 12 -20 32 -31 44 -19 23 -23 30 -68
131 -33 76 -72 219 -86 316 -12 92 -27 140 -42 140 -7 0 -6 4 2 9 8 5 97 9
198 8 142 -1 183 -4 183 -14z m437 9 c21 -2 22 -6 18 -78 -3 -48 0 -84 7 -98
7 -11 11 -25 10 -30 -2 -4 7 -46 19 -93 11 -47 19 -93 16 -104 -3 -10 1 -35 9
-56 18 -52 17 -60 -7 -66 -12 -3 -18 -10 -15 -15 3 -6 -12 -29 -34 -52 -23
-24 -49 -59 -60 -79 -20 -40 -66 -79 -130 -112 -56 -29 -104 -22 -181 30 -34
23 -64 41 -68 41 -4 0 -6 100 -5 223 3 177 6 229 19 253 8 16 15 37 15 46 0 9
11 39 25 66 14 28 25 55 25 60 0 26 24 61 44 64 20 4 247 3 293 0z m2011 -1
c9 -5 -7 -9 -42 -9 -32 0 -54 4 -50 9 7 11 74 12 92 0z m2380 -23 c-6 -18 -28
-21 -28 -4 0 9 7 16 16 16 9 0 14 -5 12 -12z m-117 -52 c-6 -8 -10 -20 -9 -27
2 -8 -3 -13 -9 -11 -7 1 -13 -5 -13 -13 0 -8 -4 -15 -10 -15 -5 0 -10 7 -10
15 0 24 30 65 47 65 12 0 13 -3 4 -14z m-571 -83 c-1 -13 -29 -59 -30 -48 0
21 13 55 21 55 5 0 9 -3 9 -7z m-283 -243 c4 -36 8 -87 8 -115 0 -33 6 -56 18
-69 9 -11 17 -25 17 -30 0 -6 -5 -3 -11 7 -17 28 -45 20 -63 -18 -9 -19 -21
-35 -27 -35 -5 0 -9 -6 -8 -12 3 -27 -2 -38 -16 -38 -8 0 -15 -6 -15 -14 0 -7
-7 -19 -15 -26 -9 -7 -13 -21 -10 -31 4 -11 2 -19 -4 -19 -13 0 -52 -38 -74
-72 -9 -15 -38 -51 -63 -79 -35 -40 -44 -57 -40 -75 5 -17 3 -22 -7 -19 -9 4
-13 47 -15 170 -2 164 4 205 31 205 8 0 26 14 42 30 16 17 34 30 40 30 6 0 19
15 30 33 10 17 24 36 32 40 7 4 13 13 13 18 0 6 20 35 45 63 25 29 45 59 45
65 0 7 7 25 15 41 17 33 14 36 -18 19 -21 -12 -21 -11 -6 12 9 13 19 31 24 39
11 17 19 -16 32 -120z m3128 -10 c-3 -5 -13 -10 -21 -10 -8 0 -14 5 -14 10 0
6 9 10 21 10 11 0 17 -4 14 -10z m-1330 -41 c-8 -12 -43 -26 -83 -34 -17 -3
-9 4 23 19 56 28 69 31 60 15z m1086 0 c-16 -6 -28 -6 -35 1 -7 7 1 10 25 9
32 0 33 -1 10 -10z m-10719 -235 c-9 -13 -25 -26 -35 -29 -9 -4 -15 -11 -12
-16 4 -5 2 -9 -4 -9 -11 0 -10 62 1 70 3 3 20 5 36 6 30 1 31 1 14 -22z m7778
-85 c0 -5 -9 -9 -20 -9 -11 0 -20 4 -20 8 0 4 9 8 20 9 11 1 20 -2 20 -8z
m-3756 -128 c10 -11 37 -21 67 -24 27 -3 54 -9 60 -13 16 -10 -41 -64 -68 -64
-25 0 -113 84 -113 108 0 18 35 14 54 -7z m-133 -84 c-8 -8 -11 -7 -11 4 0 20
13 34 18 19 3 -7 -1 -17 -7 -23z m3723 -38 c-8 -14 -24 -10 -24 6 0 9 6 12 15
9 8 -4 12 -10 9 -15z m-6734 -106 c-8 -3 -19 -12 -23 -19 -4 -8 -13 -14 -19
-14 -6 0 -3 9 7 20 10 11 25 20 34 19 14 0 14 -1 1 -6z m6165 -393 c-5 -8 -11
-8 -17 -2 -6 6 -7 16 -3 22 5 8 11 8 17 2 6 -6 7 -16 3 -22z m-1285 -580 c0
-5 -9 -14 -20 -20 -19 -10 -20 -10 -8 9 13 22 28 28 28 11z m2400 -1719 c0 -6
-18 -9 -39 -8 -22 0 -37 5 -35 9 7 11 74 10 74 -1z m275 -13 c6 -6 -1 -7 -20
-4 -16 2 -43 5 -58 5 -16 1 -26 5 -22 11 7 12 85 2 100 -12z m205 -18 c12 -8
11 -10 -7 -10 -13 0 -23 5 -23 10 0 13 11 13 30 0z m-1546 -103 c16 -12 17
-18 6 -58 -7 -24 -18 -55 -25 -69 -12 -24 -23 -73 -31 -134 -2 -17 -8 -32 -13
-35 -4 -3 -18 -40 -30 -81 -13 -41 -32 -95 -43 -120 -12 -25 -21 -57 -21 -72
0 -17 -6 -28 -14 -28 -7 0 -13 -9 -13 -19 0 -11 -4 -23 -10 -26 -5 -3 -10 -15
-10 -26 0 -11 -11 -36 -24 -57 -12 -20 -27 -48 -31 -61 -4 -14 -16 -38 -26
-55 -11 -17 -19 -39 -19 -48 0 -10 -4 -18 -10 -18 -5 0 -10 -9 -10 -19 0 -10
-7 -22 -16 -25 -12 -4 -14 -14 -9 -36 4 -18 3 -30 -3 -30 -6 0 -12 8 -15 18
-3 14 -6 12 -14 -8 -6 -14 -27 -48 -46 -76 -20 -29 -34 -54 -31 -57 3 -3 -4
-8 -15 -12 -12 -3 -24 -17 -27 -31 -4 -13 -15 -29 -25 -35 -10 -5 -28 -30 -40
-55 -11 -26 -29 -48 -38 -51 -11 -3 -23 -21 -30 -44 -8 -27 -17 -39 -31 -39
-10 0 -28 -15 -40 -35 -12 -19 -28 -35 -35 -35 -7 0 -27 -13 -44 -30 -18 -16
-48 -39 -67 -50 -18 -12 -34 -25 -34 -29 0 -13 -44 -56 -78 -76 -18 -11 -32
-23 -32 -27 0 -4 -5 -8 -11 -8 -6 0 -31 -16 -55 -36 -25 -20 -47 -34 -50 -31
-7 7 -22 -4 -70 -50 -18 -18 -38 -33 -43 -33 -5 0 -16 -6 -23 -13 -21 -20 -66
-47 -80 -47 -6 0 -22 -9 -34 -21 -12 -11 -31 -21 -43 -22 -11 -1 -21 -5 -21
-9 0 -4 -15 -14 -34 -22 -18 -8 -37 -19 -40 -25 -4 -6 -12 -9 -17 -6 -15 10
-50 -5 -43 -17 5 -7 0 -9 -14 -6 -15 4 -22 2 -22 -8 0 -8 -8 -14 -17 -15 -10
0 -31 -9 -48 -20 -16 -10 -42 -24 -57 -30 -14 -6 -29 -17 -32 -25 -4 -10 -13
-13 -32 -8 -18 5 -31 2 -38 -7 -6 -8 -24 -15 -40 -16 -16 -1 -37 -11 -46 -21
-11 -12 -33 -19 -60 -20 -24 -1 -49 -7 -57 -13 -7 -7 -16 -9 -19 -6 -9 8 -94
-23 -94 -35 0 -6 -11 -8 -25 -6 -14 3 -28 1 -31 -3 -3 -5 -13 -5 -23 0 -17 9
-81 -5 -97 -22 -4 -4 -19 -7 -34 -7 -14 0 -31 -5 -37 -11 -6 -6 -38 -12 -70
-14 -32 -1 -68 -5 -80 -9 -12 -4 -44 -11 -70 -16 -26 -5 -86 -16 -133 -25 -47
-9 -107 -18 -135 -20 -280 -18 -290 -17 -344 1 -32 11 -63 13 -117 8 -53 -5
-74 -3 -74 5 0 6 -10 11 -22 11 -16 0 -19 -3 -10 -8 16 -11 -67 -8 -91 3 -10
4 -29 3 -43 -3 -15 -7 -24 -8 -24 -2 0 6 -7 10 -15 10 -8 0 -12 6 -9 14 4 11
-3 12 -37 6 -23 -4 -58 -6 -79 -3 -22 3 -40 1 -44 -6 -4 -6 -15 -11 -25 -11
-21 0 -34 33 -20 47 13 13 -22 13 -38 1 -16 -13 -33 -1 -33 23 0 16 -5 19 -19
14 -16 -5 -18 -2 -14 16 5 18 3 21 -12 16 -11 -5 -24 0 -36 14 -11 12 -19 17
-19 12 0 -6 -11 -8 -25 -5 -14 2 -25 8 -25 13 0 4 -18 26 -40 48 -22 22 -40
44 -40 50 0 6 -8 11 -18 11 -22 0 -42 46 -47 109 -2 27 -6 54 -9 59 -3 6 1 22
9 38 7 15 12 31 10 35 -3 4 7 10 20 13 14 4 23 10 21 15 -3 5 4 27 15 51 11
23 23 58 26 77 3 19 12 37 19 40 15 6 47 64 39 71 -2 3 -7 -3 -11 -12 -11 -27
-24 -18 -24 18 0 36 32 86 56 86 8 0 14 4 14 9 0 5 9 12 20 16 11 3 45 31 77
61 40 38 65 54 80 52 15 -2 46 16 93 55 38 31 70 61 70 66 0 14 109 91 129 91
10 0 26 9 36 20 10 11 26 22 36 25 12 4 19 16 19 31 0 26 9 31 27 13 8 -8 21
-3 50 19 21 17 50 34 65 37 15 4 32 13 39 21 6 8 16 14 21 14 5 0 18 9 30 20
24 22 80 50 101 50 8 0 20 7 27 15 7 8 18 15 24 15 14 0 71 29 106 53 13 9 33
17 42 17 22 0 53 17 87 47 13 12 28 20 32 17 4 -2 38 11 76 30 37 18 82 37
100 41 17 3 37 13 44 21 6 8 18 14 27 14 15 0 93 33 162 69 19 10 40 17 47 14
6 -2 14 1 18 6 3 6 15 11 26 11 11 0 22 6 24 13 3 6 18 13 33 14 15 1 50 12
77 24 28 12 55 21 61 21 6 -1 42 9 80 23 38 14 77 25 87 25 9 0 25 4 35 10 16
9 74 26 196 56 33 8 72 22 87 30 15 8 38 14 51 14 13 0 36 7 52 15 15 8 32 12
37 9 5 -3 23 1 41 9 18 8 60 20 93 27 33 8 68 17 78 22 10 5 37 11 59 14 23 3
47 8 52 12 11 6 136 35 221 51 22 4 56 15 75 24 19 9 62 18 95 20 107 9 153
15 172 25 18 9 118 24 163 24 14 0 27 4 30 9 3 4 69 13 145 20 77 6 149 15
160 20 17 7 32 11 66 18 3 0 13 -5 23 -12z m2080 -188 c-5 -8 -10 -6 -16 5 -5
9 -6 21 -2 27 5 8 10 6 16 -5 5 -9 6 -21 2 -27z"/>
<path d="M8544 8140 c-1 -22 2 -40 7 -40 10 0 16 29 11 58 -7 36 -17 25 -18
-18z"/>
<path d="M3697 7918 c-3 -10 -1 -18 4 -18 4 0 13 8 18 18 7 14 6 19 -4 19 -7
0 -16 -9 -18 -19z"/>
<path d="M1110 6370 c0 -5 7 -10 15 -10 8 0 15 5 15 10 0 6 -7 10 -15 10 -8 0
-15 -4 -15 -10z"/>
<path d="M1095 6318 c-3 -18 -9 -41 -11 -50 -3 -10 -1 -18 5 -18 6 0 11 9 11
21 0 11 5 30 11 41 7 13 7 24 1 30 -7 7 -12 -1 -17 -24z"/>
<path d="M1075 6231 c-6 -11 9 -23 19 -14 9 9 7 23 -3 23 -6 0 -12 -4 -16 -9z"/>
<path d="M5468 7772 c-39 -29 -63 -60 -54 -70 7 -7 51 33 78 71 24 33 22 33
-24 -1z"/>
<path d="M6950 7700 c-12 -8 -11 -10 8 -10 12 0 22 5 22 10 0 13 -11 13 -30 0z"/>
<path d="M7200 7660 c0 -6 7 -13 15 -17 24 -9 27 1 5 15 -13 8 -20 8 -20 2z"/>
<path d="M11635 4032 c-43 -24 -95 -73 -95 -89 0 -7 -7 -16 -16 -20 -11 -4
-13 -13 -9 -37 9 -41 28 -61 48 -50 17 10 17 10 17 54 0 29 2 30 22 19 16 -9
23 -9 26 0 5 16 37 14 52 -4 7 -8 19 -15 27 -15 30 0 -1 148 -32 156 -5 2 -23
-5 -40 -14z m32 -79 c-3 -3 -11 -2 -17 2 -8 5 -7 11 2 22 12 15 13 14 16 -1 2
-10 1 -20 -1 -23z"/>
<path d="M11497 3973 c-4 -3 -7 -16 -6 -27 0 -19 1 -19 10 3 10 24 8 36 -4 24z"/>
<path d="M11595 3865 c-11 -40 -38 -67 -58 -59 -10 3 -17 12 -17 20 0 8 -4 14
-10 14 -5 0 -10 -6 -10 -14 0 -19 -27 -28 -34 -10 -3 8 -3 22 1 32 5 15 4 15
-9 2 -22 -22 -49 -116 -42 -144 9 -38 49 -59 95 -52 38 6 89 43 89 65 0 7 8
11 18 9 13 -2 17 4 17 32 0 26 -4 35 -17 35 -26 0 -33 13 -16 32 10 12 12 27
8 43 l-7 25 -8 -30z"/>
<path d="M11645 3820 c-3 -5 3 -10 15 -10 12 0 18 5 15 10 -3 6 -10 10 -15 10
-5 0 -12 -4 -15 -10z"/>
</g>
</svg>
